<svg width="307" height="34" viewBox="0 0 307 34" fill="none" xmlns="http://www.w3.org/2000/svg">
<path d="M20.7087 12.5089H27.2138C26.3859 6.52128 21.1079 2.30775 14.2628 2.30775C6.26444 2.30775 0.0993738 8.07363 0.0993738 17.8904C0.0993738 27.4707 5.86526 33.414 14.3958 33.414C22.0393 33.414 27.4947 28.5795 27.4947 20.6107V16.7964H14.8246V21.6161H21.3297C21.241 25.3713 18.6833 27.7516 14.4254 27.7516C9.62048 27.7516 6.58969 24.159 6.58969 17.8313C6.58969 11.5332 9.73875 7.97014 14.3662 7.97014C17.6631 7.97014 19.8956 9.67034 20.7087 12.5089ZM32.185 33H38.4832V20.1524C38.4832 17.3582 40.5234 15.4362 43.3029 15.4362C44.1751 15.4362 45.3727 15.5841 45.964 15.7763V10.1878C45.4022 10.0547 44.6187 9.96602 43.9829 9.96602C41.44 9.96602 39.3554 11.4445 38.5275 14.2535H38.291V10.2913H32.185V33ZM58.5122 33.4435C64.1303 33.4435 67.9151 30.7084 68.8021 26.4949L62.9771 26.1105C62.3414 27.8403 60.7151 28.7421 58.6157 28.7421C55.4667 28.7421 53.4708 26.6575 53.4708 23.2719V23.2571H68.9352V21.5274C68.9352 13.8099 64.2633 9.99559 58.2609 9.99559C51.5784 9.99559 47.2466 14.7414 47.2466 21.7491C47.2466 28.9491 51.5192 33.4435 58.5122 33.4435ZM53.4708 19.3541C53.6038 16.7668 55.5702 14.697 58.3644 14.697C61.0995 14.697 62.9919 16.6485 63.0067 19.3541H53.4708ZM83.3943 33.4435C89.0123 33.4435 92.7971 30.7084 93.6841 26.4949L87.8591 26.1105C87.2234 27.8403 85.5971 28.7421 83.4977 28.7421C80.3487 28.7421 78.3528 26.6575 78.3528 23.2719V23.2571H93.8172V21.5274C93.8172 13.8099 89.1454 9.99559 83.1429 9.99559C76.4604 9.99559 72.1286 14.7414 72.1286 21.7491C72.1286 28.9491 76.4013 33.4435 83.3943 33.4435ZM78.3528 19.3541C78.4859 16.7668 80.4522 14.697 83.2464 14.697C85.9815 14.697 87.8739 16.6485 87.8887 19.3541H78.3528ZM104.225 19.8715C104.24 16.9442 105.985 15.2292 108.528 15.2292C111.056 15.2292 112.579 16.8851 112.564 19.6645V33H118.862V18.5409C118.862 13.2481 115.757 9.99559 111.026 9.99559C107.655 9.99559 105.216 11.6514 104.196 14.2978H103.93V10.2913H97.9272V33H104.225V19.8715Z" fill="#22C51D"/>
<path d="M150.005 11.4297H156.141C156.052 6.03339 151.617 2.30775 144.875 2.30775C138.237 2.30775 133.373 5.97426 133.402 11.474C133.387 15.9389 136.537 18.4966 141.652 19.7237L144.949 20.5516C148.246 21.35 150.079 22.2962 150.094 24.3364C150.079 26.554 147.98 28.062 144.727 28.062C141.401 28.062 139.005 26.5245 138.799 23.4937H132.604C132.767 30.0431 137.453 33.4287 144.801 33.4287C152.193 33.4287 156.54 29.8953 156.554 24.3512C156.54 19.3097 152.74 16.6338 147.477 15.451L144.757 14.8005C142.125 14.1943 139.922 13.2186 139.966 11.0453C139.966 9.09375 141.696 7.65967 144.831 7.65967C147.891 7.65967 149.768 9.0494 150.005 11.4297ZM167.218 33.4287C170.574 33.4287 172.747 31.9651 173.856 29.8509H174.033V33H180.006V17.6834C180.006 12.2724 175.423 9.99559 170.367 9.99559C164.926 9.99559 161.348 12.5976 160.476 16.7372L166.301 17.2103C166.73 15.7023 168.075 14.5935 170.337 14.5935C172.481 14.5935 173.708 15.6728 173.708 17.5356V17.6243C173.708 19.088 172.156 19.2801 168.208 19.6645C163.714 20.0785 159.678 21.5865 159.678 26.6575C159.678 31.152 162.886 33.4287 167.218 33.4287ZM169.021 29.0822C167.085 29.0822 165.695 28.1803 165.695 26.4505C165.695 24.6764 167.159 23.8042 169.376 23.4937C170.751 23.3015 172.998 22.9762 173.752 22.4736V24.8834C173.752 27.2637 171.786 29.0822 169.021 29.0822ZM184.892 33H191.19V10.2913H184.892V33ZM188.056 7.36398C189.934 7.36398 191.471 5.92991 191.471 4.17057C191.471 2.42602 189.934 0.99194 188.056 0.99194C186.193 0.99194 184.656 2.42602 184.656 4.17057C184.656 5.92991 186.193 7.36398 188.056 7.36398ZM202.534 2.72171H196.236V33H202.534V2.72171ZM217.333 33H223.734V23.1832H229.116C236.079 23.1832 240.13 19.0288 240.13 12.982C240.13 6.96481 236.153 2.72171 229.279 2.72171H217.333V33ZM223.734 18.053V7.95536H228.051C231.748 7.95536 233.536 9.96602 233.536 12.982C233.536 15.9832 231.748 18.053 228.081 18.053H223.734ZM250.036 33.4287C253.392 33.4287 255.565 31.9651 256.674 29.8509H256.851V33H262.824V17.6834C262.824 12.2724 258.241 9.99559 253.185 9.99559C247.744 9.99559 244.166 12.5976 243.294 16.7372L249.119 17.2103C249.548 15.7023 250.893 14.5935 253.155 14.5935C255.299 14.5935 256.526 15.6728 256.526 17.5356V17.6243C256.526 19.088 254.974 19.2801 251.026 19.6645C246.532 20.0785 242.496 21.5865 242.496 26.6575C242.496 31.152 245.704 33.4287 250.036 33.4287ZM251.839 29.0822C249.903 29.0822 248.513 28.1803 248.513 26.4505C248.513 24.6764 249.977 23.8042 252.194 23.4937C253.569 23.3015 255.816 22.9762 256.57 22.4736V24.8834C256.57 27.2637 254.604 29.0822 251.839 29.0822ZM267.71 33H274.009V20.1524C274.009 17.3582 276.049 15.4362 278.828 15.4362C279.7 15.4362 280.898 15.5841 281.489 15.7763V10.1878C280.928 10.0547 280.144 9.96602 279.508 9.96602C276.965 9.96602 274.881 11.4445 274.053 14.2535H273.816V10.2913H267.71V33ZM284.746 33H291.044V25.7853L292.744 23.8485L298.939 33H306.316L297.46 20.1229L305.887 10.2913H298.658L291.384 18.9105H291.044V2.72171H284.746V33Z" fill="#171111"/>
</svg>
