<svg width="130" height="129" viewBox="0 0 130 129" fill="none" xmlns="http://www.w3.org/2000/svg">
<rect opacity="0.1" x="0.729004" width="128.356" height="128.356" rx="29.1719" fill="#22C51D"/>
<path d="M95.6593 92.673H80.4838L75.8041 81.5877C80.8983 78.8164 78.037 78.8164 80.0292 80.9365C80.7877 81.7036 81.8039 82.1358 82.8637 82.142C83.7986 82.1365 84.7022 81.7929 85.4185 81.1703C86.1349 80.5478 86.6189 79.6855 86.7869 78.7324C86.955 77.7794 86.7966 76.7954 86.339 75.9506C85.8815 75.1057 85.1536 74.453 84.281 74.1052C86.5769 70.8783 88.0819 67.1217 88.6665 63.1585C89.2775 63.447 89.9487 63.572 90.6184 63.5219C91.2881 63.4717 91.935 63.2482 92.4997 62.8717C93.0644 62.4953 93.5288 61.9779 93.8505 61.3671C94.1722 60.7563 94.3407 60.0715 94.3407 59.3757C94.3407 58.6798 94.1722 57.9951 93.8505 57.3843C93.5288 56.7734 93.0644 56.2561 92.4997 55.8796C91.935 55.5031 91.2881 55.2796 90.6184 55.2295C89.9487 55.1794 89.2775 55.3043 88.6665 55.5928C88.0819 51.6297 86.5769 47.873 84.281 44.6461C84.9102 44.4026 85.4703 43.9993 85.9099 43.4731C86.3496 42.9469 86.6547 42.3148 86.7973 41.6346C86.9399 40.9545 86.9155 40.2481 86.7262 39.5803C86.5369 38.9125 86.1889 38.3046 85.714 37.8125C85.2391 37.3203 84.6525 36.9596 84.0081 36.7634C83.3638 36.5673 82.6822 36.5419 82.0259 36.6897C81.3696 36.8375 80.7596 37.1538 80.2519 37.6094C79.7442 38.065 79.355 38.6455 79.12 39.2975C76.0063 36.9182 72.3815 35.3585 68.5574 34.7526C68.8357 34.1193 68.9563 33.4238 68.9079 32.7297C68.8596 32.0357 68.6439 31.3653 68.2806 30.7801C67.9174 30.1948 67.4182 29.7135 66.8288 29.3801C66.2394 29.0468 65.5787 28.8721 64.9072 28.8721C64.2358 28.8721 63.5751 29.0468 62.9857 29.3801C62.3963 29.7135 61.8971 30.1948 61.5338 30.7801C61.1705 31.3653 60.9548 32.0357 60.9065 32.7297C60.8581 33.4238 60.9787 34.1193 61.2571 34.7526C57.4329 35.3585 53.8081 36.9182 50.6944 39.2975C50.4594 38.6455 50.0703 38.065 49.5625 37.6094C49.0548 37.1538 48.4449 36.8375 47.7886 36.6897C47.1323 36.5419 46.4507 36.5673 45.8063 36.7634C45.1619 36.9596 44.5754 37.3203 44.1005 37.8125C43.6256 38.3046 43.2775 38.9125 43.0883 39.5803C42.899 40.2481 42.8745 40.9545 43.0171 41.6346C43.1598 42.3148 43.4649 42.9469 43.9045 43.4731C44.3442 43.9993 44.9043 44.4026 45.5334 44.6461C43.2376 47.873 41.7326 51.6297 41.1479 55.5928C40.5369 55.3043 39.8658 55.1794 39.196 55.2295C38.5263 55.2796 37.8795 55.5031 37.3148 55.8796C36.7501 56.2561 36.2856 56.7734 35.9639 57.3843C35.6423 57.9951 35.4737 58.6798 35.4737 59.3757C35.4737 60.0715 35.6423 60.7563 35.9639 61.3671C36.2856 61.9779 36.7501 62.4953 37.3148 62.8717C37.8795 63.2482 38.5263 63.4717 39.196 63.5219C39.8658 63.572 40.5369 63.447 41.1479 63.1585C41.7326 67.1217 43.2376 70.8783 45.5334 74.1052C44.974 74.3245 44.4689 74.6707 44.0553 75.1185C43.6416 75.5662 43.3298 76.1042 43.1427 76.693C42.9556 77.2818 42.8979 77.9064 42.9739 78.5213C43.0499 79.1362 43.2576 79.7257 43.5818 80.2466C43.906 80.7675 44.3386 81.2067 44.8477 81.532C45.3569 81.8573 45.9298 82.0604 46.5246 82.1265C47.1193 82.1927 47.7208 82.1201 48.285 81.9142C48.8491 81.7083 49.3617 81.3743 49.7852 80.9365C51.7774 78.858 48.9161 78.8857 54.0103 81.5877L49.3306 92.673H34.1552C33.8006 92.673 33.4605 92.819 33.2097 93.0788C32.959 93.3387 32.8181 93.6912 32.8181 94.0587C32.8181 94.4262 32.959 94.7786 33.2097 95.0385C33.4605 95.2983 33.8006 95.4443 34.1552 95.4443H95.6593C96.0139 95.4443 96.354 95.2983 96.6047 95.0385C96.8555 94.7786 96.9963 94.4262 96.9963 94.0587C96.9963 93.6912 96.8555 93.3387 96.6047 93.0788C96.354 92.819 96.0139 92.673 95.6593 92.673ZM66.2443 85.7447C66.2443 86.1122 66.1034 86.4647 65.8527 86.7245C65.6019 86.9844 65.2618 87.1304 64.9072 87.1304C64.5526 87.1304 64.2125 86.9844 63.9618 86.7245C63.711 86.4647 63.5702 86.1122 63.5702 85.7447C63.5702 85.3772 63.711 85.0248 63.9618 84.7649C64.2125 84.505 64.5526 84.3591 64.9072 84.3591C65.2618 84.3591 65.6019 84.505 65.8527 84.7649C66.1034 85.0248 66.2443 85.3772 66.2443 85.7447ZM48.8627 74.0636C45.6998 70.3872 43.8168 65.7184 43.5145 60.8029H46.1886C46.4745 64.9753 48.0605 68.9385 50.7078 72.096L48.8627 74.0636ZM79.0131 72.096C81.6943 68.9514 83.3137 64.9868 83.6259 60.8029H86.3C85.9976 65.7184 84.1147 70.3872 80.9518 74.0636L79.0131 72.096ZM48.9295 58.0316C49.2027 54.5889 50.5122 51.3221 52.6733 48.6923L60.3212 56.6459C60.0719 57.0798 59.8786 57.5457 59.7462 58.0316H48.9295ZM70.0682 58.0316C69.9358 57.5457 69.7425 57.0798 69.4933 56.6459L77.1412 48.72C79.3213 51.3335 80.6542 54.5907 80.9518 58.0316H70.0682ZM63.8242 61.953C63.2637 61.6957 62.8054 61.2465 62.5263 60.6808C62.2472 60.1151 62.1641 59.4671 62.291 58.8455C62.4179 58.2239 62.7471 57.6663 63.2234 57.2662C63.6997 56.8662 64.2941 56.6478 64.9072 56.6478C65.5203 56.6478 66.1148 56.8662 66.5911 57.2662C67.0673 57.6663 67.3965 58.2239 67.5234 58.8455C67.6503 59.4671 67.5672 60.1151 67.2881 60.6808C67.009 61.2465 66.5508 61.6957 65.9902 61.953C65.6492 62.1096 65.2803 62.1904 64.9072 62.1904C64.5342 62.1904 64.1653 62.1096 63.8242 61.953ZM67.5813 54.6644C67.1627 54.4061 66.7132 54.2058 66.2443 54.0686V42.8586C69.5661 43.1418 72.7183 44.4989 75.256 46.7385L67.5813 54.6644ZM63.5702 54.0686C63.1013 54.2058 62.6518 54.4061 62.2331 54.6644L54.5852 46.7385C57.1156 44.5042 60.2576 43.1474 63.5702 42.8586V54.0686ZM66.2443 65.9991L70.1217 75.1306C68.8724 75.6066 67.5693 75.914 66.2443 76.0451V65.9991ZM69.012 65.625L75.256 72.096C74.4323 72.8335 73.536 73.4791 72.5819 74.0221L69.012 65.625ZM69.4933 62.1886C69.7425 61.7547 69.9358 61.2888 70.0682 60.8029H80.9518C80.6786 64.2455 79.3691 67.5123 77.208 70.1422L69.4933 62.1886ZM83.6259 58.0316C83.34 53.8592 81.754 49.8959 79.1066 46.7385L80.9518 44.7709C84.1147 48.4473 85.9976 53.116 86.3 58.0316H83.6259ZM77.208 44.7709C74.1434 42.0134 70.2936 40.3689 66.2443 40.0873V37.316C70.9874 37.6293 75.4924 39.5807 79.0398 42.8586L77.208 44.7709ZM63.5702 40.0873C59.5441 40.3836 55.7199 42.0273 52.6733 44.7709L50.7746 42.7894C54.3221 39.5115 58.8271 37.56 63.5702 37.2467V40.0873ZM50.7746 46.7385C48.1273 49.8959 46.5413 53.8592 46.2554 58.0316H43.5813C43.8836 53.116 45.7666 48.4473 48.9295 44.7709L50.7746 46.7385ZM48.9295 60.8029H59.7462C59.8786 61.2888 60.0719 61.7547 60.3212 62.1886L52.6733 70.1145C50.5174 67.4922 49.2082 64.2359 48.9295 60.8029ZM60.8025 65.625L57.2459 74.0221C56.2918 73.4791 55.3955 72.8335 54.5719 72.096L60.8025 65.625ZM63.5702 65.9991V76.0451C62.2481 75.9363 60.945 75.6523 59.6927 75.1999L63.5702 65.9991ZM63.5702 78.8164V81.5877C61.5052 81.4367 59.4731 80.9698 57.5401 80.2021L58.6231 77.6663C60.2131 78.2843 61.8779 78.6713 63.5702 78.8164ZM66.2443 81.5877V78.8164C67.9334 78.6936 69.5981 78.3299 71.1913 77.7356L72.2743 80.2021C70.3413 80.9698 68.3092 81.4367 66.2443 81.5877ZM73.6515 76.6271C74.9006 75.9328 76.0711 75.0962 77.1412 74.1329L79.0398 76.0451C77.7273 77.25 76.2769 78.2832 74.7211 79.1213L73.6515 76.6271ZM83.813 79.0797C83.5573 79.3067 83.2283 79.4253 82.8918 79.4119C82.5553 79.3984 82.236 79.2538 81.9979 79.007C81.7598 78.7603 81.6203 78.4295 81.6073 78.0807C81.5943 77.732 81.7088 77.391 81.9278 77.1259C82.1818 76.9456 82.488 76.8617 82.7948 76.8882C83.1016 76.9148 83.3901 77.0503 83.6117 77.2717C83.8333 77.4932 83.9743 77.7872 84.011 78.1039C84.0477 78.4207 83.9778 78.7409 83.813 79.0104V79.0797ZM90.3111 58.0316C90.6657 58.0316 91.0058 58.1776 91.2565 58.4374C91.5073 58.6973 91.6481 59.0497 91.6481 59.4172C91.6481 59.7847 91.5073 60.1372 91.2565 60.3971C91.0058 60.6569 90.6657 60.8029 90.3111 60.8029C89.9565 60.8029 89.6164 60.6569 89.3657 60.3971C89.1149 60.1372 88.974 59.7847 88.974 59.4172C88.974 59.0497 89.1149 58.6973 89.3657 58.4374C89.6164 58.1776 89.9565 58.0316 90.3111 58.0316ZM83.813 39.8241C84.0321 40.0891 84.1466 40.4301 84.1336 40.7788C84.1206 41.1276 83.9811 41.4584 83.7429 41.7052C83.5048 41.952 83.1856 42.0965 82.8491 42.11C82.5126 42.1235 82.1836 42.0048 81.9278 41.7778C81.7088 41.5128 81.5943 41.1718 81.6073 40.823C81.6203 40.4743 81.7598 40.1435 81.9979 39.8967C82.236 39.6499 82.5553 39.5054 82.8918 39.4919C83.2283 39.4784 83.5573 39.597 83.813 39.8241ZM63.5702 33.0898C63.5702 32.7223 63.711 32.3698 63.9618 32.11C64.2125 31.8501 64.5526 31.7041 64.9072 31.7041C65.2618 31.7041 65.6019 31.8501 65.8527 32.11C66.1034 32.3698 66.2443 32.7223 66.2443 33.0898C66.2443 33.4573 66.1034 33.8097 65.8527 34.0696C65.6019 34.3294 65.2618 34.4754 64.9072 34.4754C64.5526 34.4754 64.2125 34.3294 63.9618 34.0696C63.711 33.8097 63.5702 33.4573 63.5702 33.0898ZM47.8866 39.8241C48.1057 40.0891 48.2201 40.4301 48.2071 40.7788C48.1941 41.1276 48.0546 41.4584 47.8165 41.7052C47.5784 41.952 47.2592 42.0965 46.9227 42.11C46.5862 42.1235 46.2572 42.0048 46.0014 41.7778C45.7823 41.5128 45.6679 41.1718 45.6809 40.823C45.6939 40.4743 45.8334 40.1435 46.0715 39.8967C46.3096 39.6499 46.6288 39.5054 46.9653 39.4919C47.3018 39.4784 47.6308 39.597 47.8866 39.8241ZM39.5033 60.8029C39.1487 60.8029 38.8087 60.6569 38.5579 60.3971C38.3072 60.1372 38.1663 59.7847 38.1663 59.4172C38.1663 59.0497 38.3072 58.6973 38.5579 58.4374C38.8087 58.1776 39.1487 58.0316 39.5033 58.0316C39.858 58.0316 40.198 58.1776 40.4488 58.4374C40.6995 58.6973 40.8404 59.0497 40.8404 59.4172C40.8404 59.7847 40.6995 60.1372 40.4488 60.3971C40.198 60.6569 39.858 60.8029 39.5033 60.8029ZM47.8866 79.0104C47.6308 79.2374 47.3018 79.3561 46.9653 79.3426C46.6288 79.3291 46.3096 79.1845 46.0715 78.9378C45.8334 78.691 45.6939 78.3602 45.6809 78.0114C45.6679 77.6627 45.7823 77.3217 46.0014 77.0566C46.2572 76.8296 46.5862 76.711 46.9227 76.7245C47.2592 76.738 47.5784 76.8825 47.8165 77.1293C48.0546 77.3761 48.1941 77.7069 48.2071 78.0556C48.2201 78.4044 48.1057 78.7453 47.8866 79.0104ZM50.7746 76.0451L52.6733 74.0913C53.7433 75.0547 54.9138 75.8912 56.1629 76.5855L55.0933 79.1213C53.5375 78.2832 52.0871 77.25 50.7746 76.0451ZM52.2454 92.673L56.4571 82.7378C58.0077 83.3481 59.6169 83.7848 61.2571 84.0404C60.9787 84.6736 60.8581 85.3691 60.9065 86.0632C60.9548 86.7572 61.1705 87.4276 61.5338 88.0129C61.8971 88.5981 62.3963 89.0794 62.9857 89.4128C63.5751 89.7462 64.2358 89.9208 64.9072 89.9208C65.5787 89.9208 66.2394 89.7462 66.8288 89.4128C67.4182 89.0794 67.9174 88.5981 68.2806 88.0129C68.6439 87.4276 68.8596 86.7572 68.9079 86.0632C68.9563 85.3691 68.8357 84.6736 68.5574 84.0404C70.1976 83.7848 71.8067 83.3481 73.3573 82.7378L77.569 92.673H52.2454Z" fill="#22C51D"/>
</svg>
