<svg width="130" height="129" viewBox="0 0 130 129" fill="none" xmlns="http://www.w3.org/2000/svg">
<rect opacity="0.1" x="0.729004" y="0.13916" width="128.356" height="128.356" rx="29.1719" fill="#22C51D"/>
<path d="M90.5538 70.1215C91.1099 70.1215 91.6432 69.9006 92.0364 69.5074C92.4296 69.1142 92.6505 68.5808 92.6505 68.0248V59.6378C92.6505 59.0817 92.4296 58.5484 92.0364 58.1552C91.6432 57.762 91.1099 57.5411 90.5538 57.5411H86.3603V53.3476C86.3603 52.7915 86.1394 52.2582 85.7462 51.865C85.353 51.4718 84.8197 51.2509 84.2636 51.2509H67.4897V47.0574H77.9734C78.3874 47.0554 78.7914 46.9308 79.1347 46.6995C79.478 46.4681 79.7451 46.1404 79.9024 45.7575C80.063 45.3756 80.1068 44.9548 80.0285 44.548C79.9501 44.1413 79.753 43.7669 79.4621 43.472L76.7363 40.7672L79.4621 38.0625C79.753 37.7676 79.9501 37.3932 80.0285 36.9864C80.1068 36.5797 80.063 36.1589 79.9024 35.777C79.7451 35.3941 79.478 35.0663 79.1347 34.835C78.7914 34.6037 78.3874 34.4791 77.9734 34.4771H65.393C64.8369 34.4771 64.3036 34.698 63.9104 35.0912C63.5172 35.4844 63.2963 36.0177 63.2963 36.5738V51.2509H46.5224C45.9663 51.2509 45.433 51.4718 45.0398 51.865C44.6466 52.2582 44.4257 52.7915 44.4257 53.3476V57.5411H40.2322C39.6761 57.5411 39.1428 57.762 38.7496 58.1552C38.3564 58.5484 38.1355 59.0817 38.1355 59.6378V91.0888C38.1355 91.6449 38.3564 92.1782 38.7496 92.5714C39.1428 92.9646 39.6761 93.1855 40.2322 93.1855H90.5538C91.1099 93.1855 91.6432 92.9646 92.0364 92.5714C92.4296 92.1782 92.6505 91.6449 92.6505 91.0888V78.5084C92.6505 77.9523 92.4296 77.419 92.0364 77.0258C91.6432 76.6326 91.1099 76.4117 90.5538 76.4117C89.9977 76.4117 89.4644 76.6326 89.0712 77.0258C88.678 77.419 88.4571 77.9523 88.4571 78.5084V88.9921H86.3603V72.2182C86.3603 70.55 85.6976 68.95 84.518 67.7704C83.3383 66.5907 81.7384 65.928 80.0701 65.928C78.4019 65.928 76.8019 66.5907 75.6223 67.7704C74.4427 68.95 73.7799 70.55 73.7799 72.2182V88.9921H63.2963V72.2182C63.2963 71.6621 63.5172 71.1288 63.9104 70.7356C64.3036 70.3424 64.8369 70.1215 65.393 70.1215C65.9491 70.1215 66.4824 70.3424 66.8756 70.7356C67.2688 71.1288 67.4897 71.6621 67.4897 72.2182V82.7019C67.4897 83.258 67.7107 83.7913 68.1039 84.1845C68.4971 84.5777 69.0304 84.7986 69.5865 84.7986C70.1426 84.7986 70.6759 84.5777 71.0691 84.1845C71.4623 83.7913 71.6832 83.258 71.6832 82.7019V72.2182C71.6832 70.55 71.0205 68.95 69.8409 67.7704C68.6612 66.5907 67.0613 65.928 65.393 65.928C63.7248 65.928 62.1248 66.5907 60.9452 67.7704C59.7655 68.95 59.1028 70.55 59.1028 72.2182V88.9921H57.0061V72.2182C57.0061 70.55 56.3434 68.95 55.1637 67.7704C53.9841 66.5907 52.3842 65.928 50.7159 65.928C49.0476 65.928 47.4477 66.5907 46.2681 67.7704C45.0884 68.95 44.4257 70.55 44.4257 72.2182V82.7019C44.4257 83.258 44.6466 83.7913 45.0398 84.1845C45.433 84.5777 45.9663 84.7986 46.5224 84.7986C47.0785 84.7986 47.6118 84.5777 48.005 84.1845C48.3983 83.7913 48.6192 83.258 48.6192 82.7019V72.2182C48.6192 71.6621 48.8401 71.1288 49.2333 70.7356C49.6265 70.3424 50.1598 70.1215 50.7159 70.1215C51.272 70.1215 51.8053 70.3424 52.1985 70.7356C52.5917 71.1288 52.8126 71.6621 52.8126 72.2182V88.9921H42.329V61.7346H88.4571V68.0248C88.4571 68.5808 88.678 69.1142 89.0712 69.5074C89.4644 69.9006 89.9977 70.1215 90.5538 70.1215ZM67.4897 38.6705H72.9203L72.2913 39.2786C72.0947 39.4735 71.9388 39.7054 71.8323 39.9609C71.7259 40.2164 71.6711 40.4905 71.6711 40.7672C71.6711 41.044 71.7259 41.3181 71.8323 41.5736C71.9388 41.8291 72.0947 42.061 72.2913 42.2559L72.9203 42.864H67.4897V38.6705ZM77.9734 72.2182C77.9734 71.6621 78.1943 71.1288 78.5875 70.7356C78.9807 70.3424 79.5141 70.1215 80.0701 70.1215C80.6262 70.1215 81.1595 70.3424 81.5528 70.7356C81.946 71.1288 82.1669 71.6621 82.1669 72.2182V88.9921H77.9734V72.2182ZM48.6192 57.5411V55.4444H82.1669V57.5411H48.6192Z" fill="#22C51D"/>
</svg>
