<svg width="129" height="129" viewBox="0 0 129 129" fill="none" xmlns="http://www.w3.org/2000/svg">
<rect opacity="0.1" x="0.321777" width="128.356" height="128.356" rx="29.1719" fill="#22C51D"/>
<mask id="path-2-inside-1" fill="white">
<path d="M81.647 81.8975H79.3613C82.5391 64.9507 80.4205 49.7088 73.2844 39.785C73.0841 39.5032 72.8247 39.2605 72.521 39.0707C72.2174 38.8809 71.8757 38.7479 71.5155 38.6793C71.1553 38.6107 70.7837 38.6079 70.4223 38.671C70.0609 38.7341 69.7168 38.8619 69.4097 39.0471C69.1033 39.2319 68.8399 39.4702 68.6347 39.7483C68.4295 40.0264 68.2866 40.3388 68.214 40.6674C68.1415 40.9961 68.1408 41.3346 68.2121 41.6635C68.2834 41.9925 68.4251 42.3053 68.6292 42.584C75.0127 51.4645 76.9918 66.0449 73.7583 81.8975H71.1659C73.069 73.2662 72.8404 64.3563 70.4969 55.8157C69.1729 51.1746 67.2156 46.7036 64.6709 42.5077C64.4236 42.0945 64.0555 41.752 63.6077 41.5184C63.1599 41.2848 62.6498 41.1692 62.1343 41.1845H59.3467C58.6074 41.1845 57.8984 41.4526 57.3756 41.9298C56.8529 42.407 56.5592 43.0542 56.5592 43.7291V71.7193C56.5592 72.3941 56.8529 73.0413 57.3756 73.5185C57.8984 73.9957 58.6074 74.2638 59.3467 74.2638H66.6779C66.4606 76.831 66.0508 79.3815 65.4514 81.8975H53.7717V33.7544C56.2322 34.0255 58.615 34.716 60.7962 35.79C61.2072 35.9925 61.6673 36.0975 62.1343 36.0954C62.7559 36.0982 63.3608 35.9113 63.8528 35.5643C64.3447 35.2173 64.6954 34.7302 64.8492 34.1803C65.003 33.6305 64.951 33.0495 64.7016 32.5297C64.4521 32.0099 64.0194 31.5811 63.4723 31.3116C60.4479 29.9024 57.1543 29.0384 53.7717 28.767V25.9171C53.7717 25.2423 53.478 24.595 52.9552 24.1178C52.4324 23.6406 51.7234 23.3726 50.9841 23.3726C50.2448 23.3726 49.5358 23.6406 49.013 24.1178C48.4903 24.595 48.1966 25.2423 48.1966 25.9171V81.8975H45.409C44.6697 81.8975 37.796 81.805 37.2732 82.2822C36.7504 82.7594 37.7594 84.0575 39.218 86.2766L42.1352 92.0758C42.1352 92.7506 42.9152 93.3978 43.4379 93.875C43.9607 94.3522 44.6697 94.6203 45.409 94.6203H81.647C82.3863 94.6203 83.0954 94.3522 83.6181 93.875C84.1409 93.3978 83.6181 93.875 85.4069 92.0758L88.3242 86.9866C88.8103 86.2766 90.3055 82.3747 89.7828 81.8975C89.26 81.4203 82.3863 81.8975 81.647 81.8975ZM62.1343 61.541H66.0089C66.479 64.064 66.7399 66.6158 66.7895 69.1747H62.1343V61.541ZM64.9218 56.4519H62.1343V49.4798C63.2419 51.7411 64.1734 54.0709 64.9218 56.4519ZM81.647 89.3833H46.0248L44.08 85.8327H83.6181L81.647 89.3833Z"/>
</mask>
<path d="M81.647 81.8975H79.3613C82.5391 64.9507 80.4205 49.7088 73.2844 39.785C73.0841 39.5032 72.8247 39.2605 72.521 39.0707C72.2174 38.8809 71.8757 38.7479 71.5155 38.6793C71.1553 38.6107 70.7837 38.6079 70.4223 38.671C70.0609 38.7341 69.7168 38.8619 69.4097 39.0471C69.1033 39.2319 68.8399 39.4702 68.6347 39.7483C68.4295 40.0264 68.2866 40.3388 68.214 40.6674C68.1415 40.9961 68.1408 41.3346 68.2121 41.6635C68.2834 41.9925 68.4251 42.3053 68.6292 42.584C75.0127 51.4645 76.9918 66.0449 73.7583 81.8975H71.1659C73.069 73.2662 72.8404 64.3563 70.4969 55.8157C69.1729 51.1746 67.2156 46.7036 64.6709 42.5077C64.4236 42.0945 64.0555 41.752 63.6077 41.5184C63.1599 41.2848 62.6498 41.1692 62.1343 41.1845H59.3467C58.6074 41.1845 57.8984 41.4526 57.3756 41.9298C56.8529 42.407 56.5592 43.0542 56.5592 43.7291V71.7193C56.5592 72.3941 56.8529 73.0413 57.3756 73.5185C57.8984 73.9957 58.6074 74.2638 59.3467 74.2638H66.6779C66.4606 76.831 66.0508 79.3815 65.4514 81.8975H53.7717V33.7544C56.2322 34.0255 58.615 34.716 60.7962 35.79C61.2072 35.9925 61.6673 36.0975 62.1343 36.0954C62.7559 36.0982 63.3608 35.9113 63.8528 35.5643C64.3447 35.2173 64.6954 34.7302 64.8492 34.1803C65.003 33.6305 64.951 33.0495 64.7016 32.5297C64.4521 32.0099 64.0194 31.5811 63.4723 31.3116C60.4479 29.9024 57.1543 29.0384 53.7717 28.767V25.9171C53.7717 25.2423 53.478 24.595 52.9552 24.1178C52.4324 23.6406 51.7234 23.3726 50.9841 23.3726C50.2448 23.3726 49.5358 23.6406 49.013 24.1178C48.4903 24.595 48.1966 25.2423 48.1966 25.9171V81.8975H45.409C44.6697 81.8975 37.796 81.805 37.2732 82.2822C36.7504 82.7594 37.7594 84.0575 39.218 86.2766L42.1352 92.0758C42.1352 92.7506 42.9152 93.3978 43.4379 93.875C43.9607 94.3522 44.6697 94.6203 45.409 94.6203H81.647C82.3863 94.6203 83.0954 94.3522 83.6181 93.875C84.1409 93.3978 83.6181 93.875 85.4069 92.0758L88.3242 86.9866C88.8103 86.2766 90.3055 82.3747 89.7828 81.8975C89.26 81.4203 82.3863 81.8975 81.647 81.8975ZM62.1343 61.541H66.0089C66.479 64.064 66.7399 66.6158 66.7895 69.1747H62.1343V61.541ZM64.9218 56.4519H62.1343V49.4798C63.2419 51.7411 64.1734 54.0709 64.9218 56.4519ZM81.647 89.3833H46.0248L44.08 85.8327H83.6181L81.647 89.3833Z" fill="#22C51D"/>
<path d="M81.647 81.8975H79.3613C82.5391 64.9507 80.4205 49.7088 73.2844 39.785C73.0841 39.5032 72.8247 39.2605 72.521 39.0707C72.2174 38.8809 71.8757 38.7479 71.5155 38.6793C71.1553 38.6107 70.7837 38.6079 70.4223 38.671C70.0609 38.7341 69.7168 38.8619 69.4097 39.0471C69.1033 39.2319 68.8399 39.4702 68.6347 39.7483C68.4295 40.0264 68.2866 40.3388 68.214 40.6674C68.1415 40.9961 68.1408 41.3346 68.2121 41.6635C68.2834 41.9925 68.4251 42.3053 68.6292 42.584C75.0127 51.4645 76.9918 66.0449 73.7583 81.8975H71.1659C73.069 73.2662 72.8404 64.3563 70.4969 55.8157C69.1729 51.1746 67.2156 46.7036 64.6709 42.5077C64.4236 42.0945 64.0555 41.752 63.6077 41.5184C63.1599 41.2848 62.6498 41.1692 62.1343 41.1845H59.3467C58.6074 41.1845 57.8984 41.4526 57.3756 41.9298C56.8529 42.407 56.5592 43.0542 56.5592 43.7291V71.7193C56.5592 72.3941 56.8529 73.0413 57.3756 73.5185C57.8984 73.9957 58.6074 74.2638 59.3467 74.2638H66.6779C66.4606 76.831 66.0508 79.3815 65.4514 81.8975H53.7717V33.7544C56.2322 34.0255 58.615 34.716 60.7962 35.79C61.2072 35.9925 61.6673 36.0975 62.1343 36.0954C62.7559 36.0982 63.3608 35.9113 63.8528 35.5643C64.3447 35.2173 64.6954 34.7302 64.8492 34.1803C65.003 33.6305 64.951 33.0495 64.7016 32.5297C64.4521 32.0099 64.0194 31.5811 63.4723 31.3116C60.4479 29.9024 57.1543 29.0384 53.7717 28.767V25.9171C53.7717 25.2423 53.478 24.595 52.9552 24.1178C52.4324 23.6406 51.7234 23.3726 50.9841 23.3726C50.2448 23.3726 49.5358 23.6406 49.013 24.1178C48.4903 24.595 48.1966 25.2423 48.1966 25.9171V81.8975H45.409C44.6697 81.8975 37.796 81.805 37.2732 82.2822C36.7504 82.7594 37.7594 84.0575 39.218 86.2766L42.1352 92.0758C42.1352 92.7506 42.9152 93.3978 43.4379 93.875C43.9607 94.3522 44.6697 94.6203 45.409 94.6203H81.647C82.3863 94.6203 83.0954 94.3522 83.6181 93.875C84.1409 93.3978 83.6181 93.875 85.4069 92.0758L88.3242 86.9866C88.8103 86.2766 90.3055 82.3747 89.7828 81.8975C89.26 81.4203 82.3863 81.8975 81.647 81.8975ZM62.1343 61.541H66.0089C66.479 64.064 66.7399 66.6158 66.7895 69.1747H62.1343V61.541ZM64.9218 56.4519H62.1343V49.4798C63.2419 51.7411 64.1734 54.0709 64.9218 56.4519ZM81.647 89.3833H46.0248L44.08 85.8327H83.6181L81.647 89.3833Z" fill="#22C51D"/>
<path d="M29.0079 102.254L16.4014 86.1896L8.58789 92.3212L8.58756 102.253L29.0079 102.254ZM54.7765 98.2597L53.3476 118.63L54.7765 98.2597ZM102.424 97.372H122.844V62.2118L92.3048 79.6353L102.424 97.372ZM102.424 100.923L114.035 117.721L122.844 111.632V100.923H102.424ZM29.0079 105.805L8.58756 105.806L8.58951 144.046L40.3673 122.774L29.0079 105.805ZM41.6144 118.318C40.1476 119.47 39.2033 119.786 39.519 119.658C39.626 119.615 40.1993 119.399 41.3099 119.162C43.5112 118.692 47.4574 118.217 53.3476 118.63L56.2053 77.8894C46.91 77.2374 39.1031 77.8718 32.782 79.2215C27.0935 80.4361 21.0115 82.5718 16.4014 86.1896L41.6144 118.318ZM53.3476 118.63C62.1575 119.248 65.8074 119.831 69.9073 120.349C74.7898 120.967 79.2922 121.343 88.3242 121.343V80.5022C80.8254 80.5022 78.0449 80.2125 75.0317 79.8315C71.2359 79.3514 66.3772 78.6029 56.2053 77.8894L53.3476 118.63ZM88.3242 121.343C93.0773 121.343 97.5518 120.877 101.954 119.649C106.396 118.41 109.854 116.643 112.543 115.109L92.3048 79.6353C91.668 79.9985 91.3404 80.159 91.1684 80.2362C91.0308 80.2981 90.9912 80.3073 90.9818 80.3099C90.9655 80.3144 90.8109 80.3582 90.4331 80.4033C90.0346 80.4508 89.3669 80.5022 88.3242 80.5022V121.343ZM90.8132 84.1244C91.2511 83.8217 91.5668 83.6403 91.7071 83.5624C91.8655 83.4745 91.9498 83.4357 91.9539 83.4338C91.9576 83.4321 91.7807 83.5124 91.4396 83.6169C90.7525 83.8274 89.673 84.0528 88.3242 84.0528V124.893C99.4953 124.893 108.791 121.346 114.035 117.721L90.8132 84.1244ZM88.3242 84.0528C85.2422 84.0528 79.0935 83.4475 71.8906 82.6298C68.6278 82.2593 65.1466 81.8478 62.3873 81.5496C60.0345 81.2954 56.716 80.946 54.2903 80.946V121.787C54.0524 121.787 54.9618 121.826 58 122.154C60.6319 122.438 63.7052 122.804 67.2835 123.21C73.7629 123.945 82.4433 124.893 88.3242 124.893V84.0528ZM54.2903 80.946C52.6347 80.946 46.8268 80.8076 40.657 81.4412C35.0832 82.0136 25.6372 83.4877 17.6485 88.8354L40.3673 122.774C39.7548 123.184 39.7182 123.045 40.781 122.756C41.7599 122.489 43.1196 122.244 44.8291 122.068C48.3833 121.703 51.5701 121.787 54.2903 121.787V80.946ZM49.4283 105.804C49.4281 103.142 49.4282 105.362 49.4283 102.255L8.58756 102.253C8.58746 105.359 8.58743 103.142 8.58756 105.806L49.4283 105.804ZM82.0036 97.372V100.923H122.844V97.372H82.0036ZM79.3613 81.8975L39.2202 74.3704L30.1504 122.738H79.3613V81.8975ZM73.2844 39.785L39.9987 63.4499L40.0624 63.5394L40.1265 63.6285L73.2844 39.785ZM69.4097 39.0471L48.3207 4.0726L48.313 4.07725L69.4097 39.0471ZM68.6292 42.584L101.791 18.7465L101.686 18.6001L101.58 18.4546L68.6292 42.584ZM73.7583 81.8975V122.738H107.109L113.775 90.0599L73.7583 81.8975ZM71.1659 81.8975L31.2831 73.1038L20.3393 122.738H71.1659V81.8975ZM70.4969 55.8157L109.882 45.0083L109.827 44.81L109.771 44.6121L70.4969 55.8157ZM64.6709 42.5077L29.6279 63.4826L29.6888 63.5844L29.7504 63.6859L64.6709 42.5077ZM62.1343 41.1845V82.0252H62.7392L63.3439 82.0073L62.1343 41.1845ZM66.6779 74.2638L107.373 77.7092L111.122 33.4231H66.6779V74.2638ZM65.4514 81.8975V122.738H97.7057L105.18 91.3619L65.4514 81.8975ZM53.7717 81.8975H12.931V122.738H53.7717V81.8975ZM53.7717 33.7544L58.2441 -6.84069L12.931 -11.833V33.7544H53.7717ZM60.7962 35.79L78.8473 -0.844963L78.8377 -0.849709L60.7962 35.79ZM62.1343 36.0954L62.3225 -4.74489L62.1351 -4.74575L61.9477 -4.7449L62.1343 36.0954ZM63.4723 31.3116L81.5215 -5.3243L81.1236 -5.52034L80.7215 -5.70768L63.4723 31.3116ZM53.7717 28.767H12.931V66.4623L50.5055 69.4769L53.7717 28.767ZM50.9841 23.3726V-17.4681V23.3726ZM48.1966 81.8975V122.738H89.0373V81.8975H48.1966ZM39.218 86.2766L75.7026 67.9236L74.6424 65.8158L73.3464 63.8442L39.218 86.2766ZM42.1352 92.0758H82.9759V82.3823L78.6198 73.7228L42.1352 92.0758ZM85.4069 92.0758L114.37 120.87L118.163 117.054L120.839 112.387L85.4069 92.0758ZM88.3242 86.9866L54.6237 63.9163L53.7029 65.2614L52.8922 66.6756L88.3242 86.9866ZM62.1343 61.541V20.7003H21.2936V61.541H62.1343ZM66.0089 61.541L106.159 54.0606L99.9433 20.7003H66.0089V61.541ZM66.7895 69.1747V110.015H108.428L107.623 68.3844L66.7895 69.1747ZM62.1343 69.1747H21.2936V110.015H62.1343V69.1747ZM64.9218 56.4519V97.2926H120.57L103.883 44.2049L64.9218 56.4519ZM62.1343 56.4519H21.2936V97.2926H62.1343V56.4519ZM62.1343 49.4798L98.8115 31.5148L21.2936 49.4798H62.1343ZM81.647 89.3833V130.224H105.686L117.354 109.206L81.647 89.3833ZM46.0248 89.3833L10.2054 109.003L21.8291 130.224H46.0248V89.3833ZM44.08 85.8327V44.992H-24.8563L8.26065 105.453L44.08 85.8327ZM83.6181 85.8327L119.325 105.656L153.003 44.992H83.6181V85.8327ZM81.647 41.0568H79.3613V122.738H81.647V41.0568ZM119.502 89.4246C123.821 66.3943 122.519 38.2986 106.442 15.9415L40.1265 63.6285C39.0546 62.1379 39.4541 61.8404 39.7605 63.9847C40.0576 66.0639 40.1207 69.5682 39.2202 74.3704L119.502 89.4246ZM106.57 16.1201C103.139 11.2944 98.8697 7.37752 94.1678 4.43862L50.8743 73.7028C46.7797 71.1434 43.029 67.7121 39.9987 63.4499L106.57 16.1201ZM94.1678 4.43862C89.4712 1.50304 84.3623 -0.448807 79.1561 -1.4403L63.8748 78.7989C59.3891 77.9446 54.9636 76.2588 50.8743 73.7028L94.1678 4.43862ZM79.1561 -1.4403C73.9512 -2.43158 68.6105 -2.47145 63.3959 -1.56073L77.4487 78.9027C72.957 79.6872 68.3594 79.653 63.8748 78.7989L79.1561 -1.4403ZM63.3959 -1.56073C58.1805 -0.649858 53.0516 1.2199 48.3207 4.0726L90.4988 74.0215C86.3819 76.504 81.9414 78.1181 77.4487 78.9027L63.3959 -1.56073ZM48.313 4.07725C43.5859 6.92902 39.2719 10.7566 35.7727 15.4986L101.497 63.9981C98.408 68.1839 94.6207 71.5348 90.5065 74.0169L48.313 4.07725ZM35.7727 15.4986C32.2653 20.2516 29.6711 25.8022 28.3328 31.8667L108.095 49.4682C106.902 54.8753 104.594 59.8012 101.497 63.9981L35.7727 15.4986ZM28.3328 31.8667C26.9925 37.9403 26.9801 44.2305 28.2973 50.3105L108.127 33.0166C109.302 38.4387 109.29 44.0519 108.095 49.4682L28.3328 31.8667ZM28.2973 50.3105C29.6125 56.3815 32.1865 61.9444 35.6787 66.7134L101.58 18.4546C104.664 22.6661 106.954 27.6034 108.127 33.0166L28.2973 50.3105ZM35.467 66.4216C34.5701 65.1738 34.2306 64.2957 34.1599 64.0996C34.0866 63.8965 34.2032 64.1559 34.3101 64.9666C34.5336 66.6612 34.5691 69.6783 33.7416 73.7351L113.775 90.0599C118.25 68.1228 117.335 40.3707 101.791 18.7465L35.467 66.4216ZM73.7583 41.0568H71.1659V122.738H73.7583V41.0568ZM111.049 90.6912C114.383 75.5692 113.977 59.9318 109.882 45.0083L31.1121 66.6231C31.7041 68.7807 31.7551 70.9632 31.2831 73.1038L111.049 90.6912ZM109.771 44.6121C107.43 36.408 103.994 28.5884 99.5915 21.3294L29.7504 63.6859C30.4374 64.8187 30.9154 65.9412 31.2229 67.0193L109.771 44.6121ZM99.714 21.5328C95.3986 14.3229 89.2901 8.85193 82.4958 5.30791L44.7196 77.7289C38.821 74.6521 33.4486 69.866 29.6279 63.4826L99.714 21.5328ZM82.4958 5.30791C75.7184 1.77267 68.2697 0.144073 60.9246 0.361719L63.3439 82.0073C57.0299 82.1944 50.6013 80.797 44.7196 77.7289L82.4958 5.30791ZM62.1343 0.343801H59.3467V82.0252H62.1343V0.343801ZM59.3467 0.343801C48.9168 0.343801 38.249 4.09169 29.8414 11.7664L84.9098 72.0932C77.5478 78.8135 68.2981 82.0252 59.3467 82.0252V0.343801ZM29.8414 11.7664C21.3095 19.5547 15.7185 30.9583 15.7185 43.7291H97.3999C97.3999 55.1501 92.3963 65.2593 84.9098 72.0932L29.8414 11.7664ZM15.7185 43.7291V71.7193H97.3999V43.7291H15.7185ZM15.7185 71.7193C15.7185 84.49 21.3094 95.8936 29.8414 103.682L84.9098 43.3551C92.3963 50.189 97.3999 60.2983 97.3999 71.7193H15.7185ZM29.8414 103.682C38.249 111.357 48.9168 115.105 59.3467 115.105V33.4231C68.298 33.4231 77.5478 36.6348 84.9098 43.3551L29.8414 103.682ZM59.3467 115.105H66.6779V33.4231H59.3467V115.105ZM25.9828 70.8184C25.9378 71.3501 25.8522 71.8888 25.7225 72.4331L105.18 91.3619C106.249 86.8742 106.983 82.3119 107.373 77.7092L25.9828 70.8184ZM65.4514 41.0568H53.7717V122.738H65.4514V41.0568ZM94.6124 81.8975V33.7544H12.931V81.8975H94.6124ZM49.2992 74.3494C47.1282 74.1103 44.9102 73.491 42.7548 72.4298L78.8377 -0.849709C72.3198 -4.05909 65.3361 -6.05935 58.2441 -6.84069L49.2992 74.3494ZM42.7452 72.425C48.9405 75.4776 55.6579 76.9661 62.3208 76.9356L61.9477 -4.7449C67.6767 -4.77106 73.4738 -3.4926 78.8473 -0.844961L42.7452 72.425ZM61.946 76.9356C70.7649 76.9763 79.7223 74.3489 87.3934 68.938L40.3121 2.19066C46.9993 -2.52627 54.747 -4.77981 62.3225 -4.74489L61.946 76.9356ZM87.3934 68.938C95.1161 63.4906 101.35 55.3008 104.18 45.1812L25.518 23.1794C28.0409 14.1596 33.5733 6.94403 40.3121 2.19066L87.3934 68.938ZM104.18 45.1812C107.033 34.9826 106.013 24.2164 101.521 14.857L27.8825 50.2023C23.8891 41.8825 22.9731 32.2783 25.518 23.1794L104.18 45.1812ZM101.521 14.857C97.0754 5.59602 89.7632 -1.26391 81.5215 -5.3243L45.4231 67.9475C38.2756 64.4262 31.8287 58.4237 27.8825 50.2023L101.521 14.857ZM80.7215 -5.70768C73.2168 -9.2045 65.1797 -11.2896 57.0378 -11.9429L50.5055 69.4769C49.1288 69.3665 47.6789 69.0092 46.223 68.3309L80.7215 -5.70768ZM94.6124 28.767V25.9171H12.931V28.767H94.6124ZM94.6124 25.9171C94.6124 13.1464 89.0214 1.74272 80.4894 -6.04556L25.421 54.2812C17.9346 47.4474 12.931 37.3382 12.931 25.9171H94.6124ZM80.4894 -6.04556C72.0817 -13.7204 61.4139 -17.4681 50.9841 -17.4681V64.2133C42.033 64.2133 32.7832 61.0017 25.421 54.2812L80.4894 -6.04556ZM50.9841 -17.4681C40.5543 -17.4681 29.8865 -13.7204 21.4788 -6.04556L76.5472 54.2812C69.1851 61.0017 59.9353 64.2133 50.9841 64.2133V-17.4681ZM21.4788 -6.04556C12.9468 1.74277 7.35587 13.1464 7.35587 25.9171H89.0373C89.0373 37.3381 84.0337 47.4473 76.5472 54.2812L21.4788 -6.04556ZM7.35587 25.9171V81.8975H89.0373V25.9171H7.35587ZM48.1966 41.0568H45.409V122.738H48.1966V41.0568ZM45.409 41.0568C45.7519 41.0568 42.8639 41.0312 40.4651 41.0779C39.2813 41.101 37.3738 41.1523 35.4001 41.3104C34.5195 41.381 32.674 41.5436 30.5006 41.9351C29.4623 42.1222 27.4014 42.5261 24.9161 43.327C23.6466 43.7361 21.7047 44.4267 19.4496 45.5256C17.3951 46.5268 13.6482 48.5503 9.739 52.1188L64.8074 112.446C60.9309 115.984 57.2291 117.979 55.2312 118.953C53.0329 120.024 51.1593 120.688 49.9691 121.071C47.6423 121.821 45.7833 122.178 44.9845 122.322C43.2899 122.627 42.073 122.719 41.9219 122.731C41.4071 122.772 41.3623 122.757 42.0547 122.744C43.4083 122.718 44.3269 122.738 45.409 122.738V41.0568ZM9.739 52.1188C-4.86819 65.4527 -4.50191 82.6263 -2.92448 90.6623C-1.58325 97.495 1.22219 102.423 1.8401 103.53C2.83259 105.308 3.8194 106.796 4.15122 107.298C5.07304 108.693 4.46312 107.756 5.08955 108.709L73.3464 63.8442C71.3861 60.8617 72.5748 62.6651 73.1651 63.7226C73.4138 64.1682 75.9738 68.5431 77.2273 74.9288C77.9277 78.497 78.5931 84.4768 76.9557 91.6223C75.168 99.4234 71.0376 106.758 64.8074 112.446L9.739 52.1188ZM2.73333 104.63L5.65052 110.429L78.6198 73.7228L75.7026 67.9236L2.73333 104.63ZM1.29449 92.0758C1.29449 100.194 3.63994 106.635 5.71599 110.799C7.75923 114.896 10.0619 117.843 11.4926 119.524C13.8984 122.35 16.9406 124.985 15.9037 124.038L70.9721 63.7116C69.4125 62.288 71.8033 64.361 73.6885 66.5754C74.8588 67.9501 76.9338 70.5787 78.8145 74.3504C80.7279 78.188 82.9759 84.2945 82.9759 92.0758H1.29449ZM15.9037 124.038C24.3115 131.713 34.9794 135.461 45.409 135.461V53.7796C54.36 53.7796 63.6099 56.9911 70.9721 63.7116L15.9037 124.038ZM45.409 135.461H81.647V53.7796H45.409V135.461ZM81.647 135.461C92.0766 135.461 102.745 131.713 111.152 124.038L56.0839 63.7116C63.4462 56.9911 72.6961 53.7796 81.647 53.7796V135.461ZM111.152 124.038C111.191 124.003 111.319 123.887 111.441 123.774C111.575 123.65 111.852 123.395 112.187 123.072C112.566 122.707 112.891 122.382 113.16 122.106C113.276 121.987 113.371 121.889 113.425 121.833C113.475 121.78 113.524 121.73 113.536 121.717C113.564 121.688 113.582 121.669 113.664 121.584C113.77 121.476 113.985 121.257 114.37 120.87L56.4435 63.2819C55.9343 63.7941 55.5437 64.1904 55.2282 64.5135C55.0682 64.6773 54.9295 64.8203 54.8057 64.9486C54.6811 65.0777 54.5854 65.1776 54.54 65.2251C54.5122 65.2541 54.5261 65.2395 54.5454 65.2195C54.5681 65.1959 54.6346 65.1268 54.7241 65.0351C54.8191 64.9378 54.9447 64.8103 55.094 64.6618C55.2459 64.5106 55.3969 64.3628 55.5462 64.2192C55.8293 63.9467 56.0466 63.7464 56.102 63.6954C56.1346 63.6654 56.1535 63.6481 56.1442 63.6567C56.1347 63.6653 56.1204 63.6783 56.0839 63.7116L111.152 124.038ZM120.839 112.387L123.756 107.298L52.8922 66.6756L49.9749 71.7647L120.839 112.387ZM122.025 110.057C124.731 106.104 126.297 102.217 126.438 101.886C127.066 100.403 127.683 98.7733 128.232 97.1021C128.687 95.7163 129.557 92.9275 130.125 89.5316C130.38 88.0052 130.909 84.4799 130.673 80.0504C130.571 78.1285 130.083 63.3873 117.317 51.7341L62.2486 112.061C55.3911 105.801 52.3402 98.7712 50.972 94.5095C49.5766 90.163 49.2196 86.5041 49.1073 84.3977C48.8876 80.2757 49.3816 77.1391 49.5626 76.0567C49.9821 73.5488 50.5454 71.8693 50.6315 71.6073C50.8113 71.0601 50.9962 70.5689 51.2237 70.0317C51.3387 69.7601 51.5639 69.2418 51.9024 68.5539C52.0449 68.2643 52.9963 66.2936 54.6237 63.9163L122.025 110.057ZM117.317 51.7341C113.144 47.9246 109.098 45.8209 106.833 44.7754C104.371 43.6387 102.251 42.9561 100.869 42.5598C98.1656 41.7848 95.9335 41.4444 94.8269 41.2937C92.5053 40.9774 90.5489 40.9023 89.6468 40.8747C87.6104 40.8122 85.6546 40.8617 84.4983 40.8985C83.1823 40.9403 81.9384 41.0002 81.1465 41.0392C79.3283 41.1288 80.4986 41.0568 81.647 41.0568V122.738C82.5091 122.738 83.2299 122.71 83.3684 122.705C83.6515 122.694 83.9135 122.683 84.0906 122.674C84.421 122.659 84.8796 122.636 85.1668 122.622C85.8879 122.586 86.5337 122.556 87.0939 122.539C87.8138 122.516 87.7206 122.535 87.1432 122.518C86.9705 122.512 85.6427 122.478 83.8 122.227C82.9327 122.109 80.9026 121.808 78.3579 121.078C77.0548 120.704 75.003 120.046 72.5976 118.936C70.3895 117.916 66.3892 115.841 62.2486 112.061L117.317 51.7341ZM62.1343 102.382H66.0089V20.7003H62.1343V102.382ZM25.8591 69.0214C25.9191 69.3432 25.9505 69.6575 25.9564 69.965L107.623 68.3844C107.529 63.5742 107.039 58.7849 106.159 54.0606L25.8591 69.0214ZM66.7895 28.334H62.1343V110.015H66.7895V28.334ZM102.975 69.1747V61.541H21.2936V69.1747H102.975ZM64.9218 15.6112H62.1343V97.2926H64.9218V15.6112ZM102.975 56.4519V49.4798H21.2936V56.4519H102.975ZM25.457 67.4448C25.6686 67.8767 25.834 68.296 25.9606 68.6988L103.883 44.2049C102.513 39.8458 100.815 35.6055 98.8115 31.5148L25.457 67.4448ZM81.647 48.5426H46.0248V130.224H81.647V48.5426ZM81.8441 69.7634L79.8993 66.2129L8.26065 105.453L10.2054 109.003L81.8441 69.7634ZM44.08 126.673H83.6181V44.992H44.08V126.673ZM47.9108 66.0098L45.9397 69.5603L117.354 109.206L119.325 105.656L47.9108 66.0098Z" fill="#22C51D" mask="url(#path-2-inside-1)"/>
</svg>
