<svg width="130" height="129" viewBox="0 0 130 129" fill="none" xmlns="http://www.w3.org/2000/svg">
<rect opacity="0.1" x="0.942627" y="0.13916" width="128.356" height="128.356" rx="29.1719" fill="#22C51D"/>
<path d="M90.6463 57.9369C91.2104 57.9369 91.7514 57.7128 92.1504 57.3139C92.5493 56.915 92.7734 56.3739 92.7734 55.8098V45.1742C92.7734 44.61 92.5493 44.069 92.1504 43.6701C91.7514 43.2712 91.2104 43.0471 90.6463 43.0471H86.392V38.7928C86.9562 38.7928 87.4972 38.5687 87.8961 38.1698C88.295 37.7709 88.5191 37.2298 88.5191 36.6657C88.5191 36.1015 88.295 35.5605 87.8961 35.1616C87.4972 34.7627 86.9562 34.5386 86.392 34.5386H75.7564C75.1923 34.5386 74.6512 34.7627 74.2523 35.1616C73.8534 35.5605 73.6293 36.1015 73.6293 36.6657C73.6293 37.2298 73.8534 37.7709 74.2523 38.1698C74.6512 38.5687 75.1923 38.7928 75.7564 38.7928V43.0471H60.8666C60.3024 43.0471 59.7614 43.2712 59.3625 43.6701C58.9636 44.069 58.7395 44.61 58.7395 45.1742C58.7395 45.7383 58.9636 46.2794 59.3625 46.6783C59.7614 47.0772 60.3024 47.3013 60.8666 47.3013H88.5191V53.6826H41.7225V47.3013H52.3581C52.9222 47.3013 53.4633 47.0772 53.8622 46.6783C54.2611 46.2794 54.4852 45.7383 54.4852 45.1742V38.7928C55.0494 38.7928 55.5904 38.5687 55.9893 38.1698C56.3882 37.7709 56.6123 37.2298 56.6123 36.6657C56.6123 36.1015 56.3882 35.5605 55.9893 35.1616C55.5904 34.7627 55.0494 34.5386 54.4852 34.5386H43.8496C43.2855 34.5386 42.7444 34.7627 42.3455 35.1616C41.9466 35.5605 41.7225 36.1015 41.7225 36.6657C41.7225 37.2298 41.9466 37.7709 42.3455 38.1698C42.7444 38.5687 43.2855 38.7928 43.8496 38.7928V43.0471H39.5954C39.0312 43.0471 38.4902 43.2712 38.0913 43.6701C37.6924 44.069 37.4683 44.61 37.4683 45.1742V55.8098C37.4683 56.3739 37.6924 56.915 38.0913 57.3139C38.4902 57.7128 39.0312 57.9369 39.5954 57.9369H43.8496V62.1911H39.5954C39.0312 62.1911 38.4902 62.4152 38.0913 62.8141C37.6924 63.2131 37.4683 63.7541 37.4683 64.3182V74.9538C37.4683 75.518 37.6924 76.059 38.0913 76.4579C38.4902 76.8569 39.0312 77.081 39.5954 77.081H43.8496V91.9708C43.8496 92.535 44.0737 93.076 44.4726 93.4749C44.8716 93.8738 45.4126 94.0979 45.9767 94.0979H52.3581C52.9222 94.0979 53.4633 93.8738 53.8622 93.4749C54.2611 93.076 54.4852 92.535 54.4852 91.9708V77.081H82.1378V89.8437H80.0107V83.4623C80.0107 82.8982 79.7865 82.3571 79.3876 81.9582C78.9887 81.5593 78.4477 81.3352 77.8835 81.3352C77.3194 81.3352 76.7783 81.5593 76.3794 81.9582C75.9805 82.3571 75.7564 82.8982 75.7564 83.4623V91.9708C75.7564 92.535 75.9805 93.076 76.3794 93.4749C76.7783 93.8738 77.3194 94.0979 77.8835 94.0979H84.2649C84.829 94.0979 85.3701 93.8738 85.769 93.4749C86.1679 93.076 86.392 92.535 86.392 91.9708V77.081H90.6463C91.2104 77.081 91.7514 76.8569 92.1504 76.4579C92.5493 76.059 92.7734 75.518 92.7734 74.9538V64.3182C92.7734 63.7541 92.5493 63.2131 92.1504 62.8141C91.7514 62.4152 91.2104 62.1911 90.6463 62.1911H86.392V57.9369H90.6463ZM80.0107 43.0471V38.7928H82.1378V43.0471H80.0107ZM48.1039 38.7928H50.231V43.0471H48.1039V38.7928ZM54.4852 62.1911V57.9369H75.7564V62.1911H54.4852ZM48.1039 57.9369H50.231V62.1911H48.1039V57.9369ZM50.231 89.8437H48.1039V77.081H50.231V89.8437ZM88.5191 72.8267H41.7225V66.4454H88.5191V72.8267ZM82.1378 62.1911H80.0107V57.9369H82.1378V62.1911Z" fill="#22C51D"/>
</svg>
