<svg width="130" height="129" viewBox="0 0 130 129" fill="none" xmlns="http://www.w3.org/2000/svg">
<rect opacity="0.1" x="0.942627" y="0.279297" width="128.356" height="128.356" rx="29.1719" fill="#22C51D"/>
<path d="M41.0132 71.6637C41.3893 71.6637 41.75 71.4855 42.016 71.1684C42.2819 70.8512 42.4313 70.4211 42.4313 69.9725V66.5902C42.4313 65.2446 41.9831 63.9541 41.1853 63.0026C40.3875 62.0511 39.3054 61.5166 38.1771 61.5166C37.0488 61.5166 35.9667 62.0511 35.1689 63.0026C34.3711 63.9541 33.9229 65.2446 33.9229 66.5902V69.9725C33.9229 70.4211 34.0723 70.8512 34.3382 71.1684C34.6041 71.4855 34.9648 71.6637 35.3409 71.6637H41.0132ZM36.759 66.5902C36.759 66.1416 36.9084 65.7115 37.1744 65.3943C37.4403 65.0772 37.801 64.899 38.1771 64.899C38.5532 64.899 38.9139 65.0772 39.1798 65.3943C39.4458 65.7115 39.5952 66.1416 39.5952 66.5902V68.2813H36.759V66.5902Z" fill="#22C51D"/>
<path d="M33.9229 86.8853C33.9229 87.3338 34.0723 87.764 34.3382 88.0811C34.6041 88.3983 34.9648 88.5765 35.3409 88.5765H41.0132C41.3893 88.5765 41.75 88.3983 42.016 88.0811C42.2819 87.764 42.4313 87.3338 42.4313 86.8853V80.1205C42.4313 78.7749 41.9831 77.4844 41.1853 76.5329C40.3875 75.5814 39.3054 75.0469 38.1771 75.0469C37.0488 75.0469 35.9667 75.5814 35.1689 76.5329C34.3711 77.4844 33.9229 78.7749 33.9229 80.1205V86.8853ZM36.759 80.1205C36.759 79.6719 36.9084 79.2418 37.1744 78.9246C37.4403 78.6075 37.801 78.4293 38.1771 78.4293C38.5532 78.4293 38.9139 78.6075 39.1798 78.9246C39.4458 79.2418 39.5952 79.6719 39.5952 80.1205V85.1941H36.759V80.1205Z" fill="#22C51D"/>
<path d="M97.7367 54.7521H77.9686L74.8914 51.3697H97.7367C98.1128 51.3697 98.4735 51.1915 98.7394 50.8743C99.0053 50.5572 99.1548 50.127 99.1548 49.6785C99.1548 49.2299 99.0053 48.7998 98.7394 48.4826C98.4735 48.1655 98.1128 47.9873 97.7367 47.9873H71.8142L66.5389 42.1696V40.4784L72.9345 35.8952C73.1627 35.7342 73.3484 35.5001 73.4707 35.2195C73.593 34.9389 73.6468 34.623 73.6261 34.3078C73.6055 33.9925 73.5111 33.6905 73.3537 33.436C73.1964 33.1815 72.9823 32.9847 72.7359 32.8679C65.6172 29.4855 66.5389 30.1451 66.5389 29.3841C66.5389 28.9355 66.3895 28.5054 66.1236 28.1882C65.8576 27.8711 65.4969 27.6929 65.1208 27.6929C64.7447 27.6929 64.384 27.8711 64.1181 28.1882C63.8522 28.5054 63.7028 28.9355 63.7028 29.3841V42.1696L58.4275 47.9873H32.505C32.1289 47.9873 31.7682 48.1655 31.5023 48.4826C31.2363 48.7998 31.0869 49.2299 31.0869 49.6785C31.0869 50.127 31.2363 50.5572 31.5023 50.8743C31.7682 51.1915 32.1289 51.3697 32.505 51.3697H55.3503L52.273 54.7521H32.505C32.1289 54.7521 31.7682 54.9303 31.5023 55.2474C31.2363 55.5646 31.0869 55.9948 31.0869 56.4433C31.0869 56.8918 31.2363 57.322 31.5023 57.6391C31.7682 57.9563 32.1289 58.1345 32.505 58.1345H49.21L45.7215 61.9735C45.5142 62.205 45.3699 62.5054 45.3074 62.8359C45.2449 63.1663 45.267 63.5115 45.3709 63.8268C45.4748 64.142 45.6557 64.4128 45.8901 64.604C46.1246 64.7953 46.4018 64.8981 46.6858 64.8993V69.9729C46.6858 70.4214 46.8352 70.8516 47.1011 71.1688C47.3671 71.4859 47.7278 71.6641 48.1039 71.6641V91.9585H32.505C32.1289 91.9585 31.7682 92.1367 31.5023 92.4538C31.2363 92.771 31.0869 93.2012 31.0869 93.6497C31.0869 94.0982 31.2363 94.5284 31.5023 94.8456C31.7682 95.1627 32.1289 95.3409 32.505 95.3409H97.7367C98.1128 95.3409 98.4735 95.1627 98.7394 94.8456C99.0053 94.5284 99.1548 94.0982 99.1548 93.6497C99.1548 93.2012 99.0053 92.771 98.7394 92.4538C98.4735 92.1367 98.1128 91.9585 97.7367 91.9585H82.1378V71.6641C82.5139 71.6641 82.8746 71.4859 83.1405 71.1688C83.4065 70.8516 83.5559 70.4214 83.5559 69.9729V64.8993C83.8415 64.8983 84.1203 64.7944 84.3556 64.6013C84.5909 64.4081 84.7719 64.1348 84.8747 63.8169C85.3285 62.4301 84.5769 62.0243 81.0317 58.1345H97.7367C98.1128 58.1345 98.4735 57.9563 98.7394 57.6391C99.0053 57.322 99.1548 56.8918 99.1548 56.4433C99.1548 55.9948 99.0053 55.5646 98.7394 55.2474C98.4735 54.9303 98.1128 54.7521 97.7367 54.7521ZM65.1208 45.2137L79.9256 61.5169H50.3161L65.1208 45.2137ZM69.0347 34.7621L66.5389 36.5379V33.5783L69.0347 34.7621ZM50.94 91.9585V71.6641H53.7762V91.9585H50.94ZM60.8666 71.6641V91.9585H56.6124V71.6641H60.8666ZM63.7028 71.6641H66.5389V91.9585H63.7028V71.6641ZM73.6293 71.6641V91.9585H69.3751V71.6641H73.6293ZM79.3016 91.9585H76.4655V71.6641H79.3016V91.9585ZM80.7197 68.2817H49.522V64.8993H80.7197V68.2817Z" fill="#22C51D"/>
<path d="M96.3185 66.5902C96.3185 65.2446 95.8703 63.9541 95.0725 63.0026C94.2747 62.0511 93.1926 61.5166 92.0643 61.5166C90.936 61.5166 89.8539 62.0511 89.0561 63.0026C88.2583 63.9541 87.8101 65.2446 87.8101 66.5902V69.9725C87.8101 70.4211 87.9595 70.8512 88.2254 71.1684C88.4913 71.4855 88.852 71.6637 89.2281 71.6637H94.9005C95.2766 71.6637 95.6372 71.4855 95.9032 71.1684C96.1691 70.8512 96.3185 70.4211 96.3185 69.9725V66.5902ZM93.4824 68.2813H90.6462V66.5902C90.6462 66.1416 90.7956 65.7115 91.0616 65.3943C91.3275 65.0772 91.6882 64.899 92.0643 64.899C92.4404 64.899 92.8011 65.0772 93.067 65.3943C93.333 65.7115 93.4824 66.1416 93.4824 66.5902V68.2813Z" fill="#22C51D"/>
<path d="M92.0643 75.0469C90.936 75.0469 89.8539 75.5814 89.0561 76.5329C88.2583 77.4844 87.8101 78.7749 87.8101 80.1205V86.8853C87.8101 87.3338 87.9595 87.764 88.2254 88.0811C88.4913 88.3983 88.852 88.5765 89.2281 88.5765H94.9005C95.2766 88.5765 95.6372 88.3983 95.9032 88.0811C96.1691 87.764 96.3185 87.3338 96.3185 86.8853V80.1205C96.3185 78.7749 95.8703 77.4844 95.0725 76.5329C94.2747 75.5814 93.1926 75.0469 92.0643 75.0469ZM93.4824 85.1941H90.6462V80.1205C90.6462 79.6719 90.7956 79.2418 91.0616 78.9246C91.3275 78.6075 91.6882 78.4293 92.0643 78.4293C92.4404 78.4293 92.8011 78.6075 93.067 78.9246C93.333 79.2418 93.4824 79.6719 93.4824 80.1205V85.1941Z" fill="#22C51D"/>
</svg>
