<svg width="130" height="130" viewBox="0 0 130 130" fill="none" xmlns="http://www.w3.org/2000/svg">
<rect opacity="0.1" x="0.701416" y="0.820312" width="128.356" height="128.356" rx="29.1719" fill="#22C51D"/>
<path d="M89.91 71.8236L82.38 66.9738V51.9138L85.5068 54.0409C85.735 54.2177 85.9967 54.3463 86.2761 54.4188C86.5555 54.4912 86.8467 54.5061 87.132 54.4624C87.4174 54.4187 87.6908 54.3174 87.9357 54.1646C88.1806 54.0119 88.3919 53.8109 88.5567 53.5738C88.7214 53.3368 88.8362 53.0688 88.894 52.786C88.9519 52.5032 88.9515 52.2116 88.8931 51.9289C88.8346 51.6463 88.7192 51.3785 88.554 51.1418C88.3887 50.9052 88.177 50.7046 87.9318 50.5524L66.6606 35.6626C66.3045 35.4156 65.8815 35.2832 65.4481 35.2832C65.0147 35.2832 64.5917 35.4156 64.2356 35.6626L42.9644 50.5524C42.5337 50.8863 42.2476 51.3728 42.165 51.9116C42.0825 52.4503 42.21 53.0002 42.5211 53.4477C42.8321 53.8952 43.3031 54.2062 43.8368 54.3166C44.3706 54.427 44.9263 54.3283 45.3894 54.0409L48.3461 51.9563V58.7206C48.3461 59.2847 48.5702 59.8258 48.9691 60.2247C49.368 60.6236 49.909 60.8477 50.4732 60.8477C51.0373 60.8477 51.5784 60.6236 51.9773 60.2247C52.3762 59.8258 52.6003 59.2847 52.6003 58.7206V48.9784L65.363 40.0445L78.1257 48.9358V64.2723L66.5967 56.9338C66.254 56.7139 65.8553 56.597 65.4481 56.597C65.0409 56.597 64.6422 56.7139 64.2995 56.9338L40.9011 71.8236C40.4592 72.142 40.1562 72.6177 40.0547 73.1528C39.9531 73.6879 40.0606 74.2416 40.3552 74.6998C40.6497 75.1579 41.1088 75.4857 41.6377 75.6154C42.1667 75.7452 42.7253 75.6671 43.1984 75.3972L44.0918 74.7803V92.7545C44.0918 93.3186 44.3159 93.8597 44.7148 94.2586C45.1137 94.6575 45.6548 94.8816 46.2189 94.8816H84.5071C85.0712 94.8816 85.6123 94.6575 86.0112 94.2586C86.4101 93.8597 86.6342 93.3186 86.6342 92.7545V79.9918C86.6342 79.4276 86.4101 78.8866 86.0112 78.4877C85.6123 78.0887 85.0712 77.8646 84.5071 77.8646C83.9429 77.8646 83.4019 78.0887 83.003 78.4877C82.6041 78.8866 82.38 79.4276 82.38 79.9918V90.6274H73.8715V84.246C73.8715 81.9894 72.9751 79.8252 71.3794 78.2296C69.7838 76.6339 67.6196 75.7375 65.363 75.7375C63.1064 75.7375 60.9423 76.6339 59.3466 78.2296C57.751 79.8252 56.8545 81.9894 56.8545 84.246V90.6274H48.3461V72.0789L65.363 61.2518L87.6127 75.3972C87.847 75.566 88.1133 75.6853 88.3953 75.7479C88.6772 75.8104 88.969 75.8149 89.2527 75.7611C89.5365 75.7072 89.8063 75.5961 90.0457 75.4346C90.2851 75.2731 90.4891 75.0645 90.6453 74.8215C90.8015 74.5786 90.9065 74.3064 90.9541 74.0215C91.0017 73.7366 90.9907 73.445 90.9219 73.1645C90.8531 72.884 90.7279 72.6205 90.5539 72.39C90.3799 72.1594 90.1608 71.9667 89.91 71.8236ZM61.1088 84.246C61.1088 83.1177 61.557 82.0356 62.3548 81.2378C63.1526 80.44 64.2347 79.9918 65.363 79.9918C66.4913 79.9918 67.5734 80.44 68.3712 81.2378C69.169 82.0356 69.6173 83.1177 69.6173 84.246V90.6274H61.1088V84.246Z" fill="#22C51D"/>
<path d="M67.49 50.2122C68.0541 50.2122 68.5952 49.9881 68.9941 49.5892C69.393 49.1903 69.6171 48.6493 69.6171 48.0851C69.6171 47.521 69.393 46.9799 68.9941 46.581C68.5952 46.1821 68.0541 45.958 67.49 45.958H63.2358C62.6716 45.958 62.1306 46.1821 61.7317 46.581C61.3327 46.9799 61.1086 47.521 61.1086 48.0851C61.1086 48.6493 61.3327 49.1903 61.7317 49.5892C62.1306 49.9881 62.6716 50.2122 63.2358 50.2122H67.49Z" fill="#22C51D"/>
</svg>
