<svg width="129" height="129" viewBox="0 0 129 129" fill="none" xmlns="http://www.w3.org/2000/svg">
<rect opacity="0.1" x="0.0410156" y="0.279297" width="128.356" height="128.356" rx="29.1719" fill="#22C51D"/>
<path d="M64.7056 44.9791C65.2778 44.9791 65.8266 44.7518 66.2312 44.3472C66.6358 43.9426 66.8631 43.3938 66.8631 42.8216C67.4354 42.8216 67.9841 42.5943 68.3887 42.1897C68.7933 41.7851 69.0207 41.2363 69.0207 40.6641C69.0207 40.0919 68.7933 39.5432 68.3887 39.1385C67.9841 38.7339 67.4354 38.5066 66.8631 38.5066C66.8631 37.9344 66.6358 37.3857 66.2312 36.981C65.8266 36.5764 65.2778 36.3491 64.7056 36.3491C64.1334 36.3491 63.5847 36.5764 63.1801 36.981C62.7754 37.3857 62.5481 37.9344 62.5481 38.5066C61.9759 38.5066 61.4272 38.7339 61.0225 39.1385C60.6179 39.5432 60.3906 40.0919 60.3906 40.6641C60.3906 41.2363 60.6179 41.7851 61.0225 42.1897C61.4272 42.5943 61.9759 42.8216 62.5481 42.8216C62.5481 43.3938 62.7754 43.9426 63.1801 44.3472C63.5847 44.7518 64.1334 44.9791 64.7056 44.9791Z" fill="#22C51D"/>
<path d="M92.7527 85.9704H40.9725V47.7825C40.9695 47.6967 40.9842 47.6112 41.0156 47.5313C41.0471 47.4514 41.0947 47.3789 41.1554 47.3181C41.2161 47.2574 41.2887 47.2099 41.3686 47.1784C41.4484 47.1469 41.534 47.1323 41.6198 47.1353H56.0751C57.0799 48.475 58.3829 49.5625 59.8808 50.3114C61.3787 51.0604 63.0304 51.4503 64.7051 51.4503C65.8718 51.4555 67.0312 51.2659 68.1355 50.8893C70.2092 50.194 72.0226 48.8848 73.3351 47.1353H87.7904C87.8762 47.1323 87.9617 47.1469 88.0416 47.1784C88.1215 47.2099 88.1941 47.2574 88.2548 47.3181C88.3155 47.3789 88.3631 47.4514 88.3945 47.5313C88.426 47.6112 88.4407 47.6967 88.4377 47.7825V79.4979C88.4377 80.0701 88.665 80.6189 89.0696 81.0235C89.4742 81.4281 90.023 81.6554 90.5952 81.6554C91.1674 81.6554 91.7162 81.4281 92.1208 81.0235C92.5254 80.6189 92.7527 80.0701 92.7527 79.4979V47.7825C92.7527 46.4664 92.2299 45.2043 91.2993 44.2737C90.3687 43.3431 89.1065 42.8203 87.7904 42.8203H75.2553C75.6446 40.9763 75.5329 39.0616 74.9317 37.2755C74.4892 35.9282 73.7824 34.6827 72.8525 33.612C71.9226 32.5414 70.7884 31.667 69.5163 31.0403C67.0517 29.8198 64.214 29.5868 61.5833 30.3888C58.9526 31.1909 56.7276 32.9674 55.3631 35.3553C55.077 35.8531 55.0004 36.4442 55.1501 36.9985C55.2998 37.5528 55.6635 38.025 56.1614 38.3111C56.6592 38.5972 57.2503 38.6738 57.8046 38.5241C58.3589 38.3744 58.831 38.0106 59.1172 37.5128C59.9392 36.0871 61.2735 35.0281 62.8486 34.5511C64.4237 34.0742 66.1213 34.2152 67.5962 34.9454C69.1208 35.7099 70.282 37.0453 70.8274 38.6613C71.3728 40.2774 71.2583 42.0433 70.5088 43.5754C70.0005 44.5966 69.2314 45.4654 68.2793 46.0938C67.3271 46.7221 66.2259 47.0876 65.087 47.1533C63.9482 47.219 62.8122 46.9826 61.7941 46.4679C60.776 45.9533 59.9121 45.1787 59.2898 44.2226C59.08 43.9109 58.7926 43.6594 58.4558 43.4929C58.119 43.3264 57.7446 43.2507 57.3696 43.2733C56.9988 42.9855 56.5444 42.8265 56.0751 42.8203H41.6198C40.3037 42.8203 39.0415 43.3431 38.1109 44.2737C37.1803 45.2043 36.6575 46.4664 36.6575 47.7825V85.9704C36.0853 85.9704 35.5365 86.1977 35.1319 86.6023C34.7273 87.0069 34.5 87.5557 34.5 88.1279C34.5 88.7001 34.7273 89.2489 35.1319 89.6535C35.5365 90.0581 36.0853 90.2854 36.6575 90.2854H92.7527C93.3249 90.2854 93.8737 90.0581 94.2783 89.6535C94.6829 89.2489 94.9102 88.7001 94.9102 88.1279C94.9102 87.5557 94.6829 87.0069 94.2783 86.6023C93.8737 86.1977 93.3249 85.9704 92.7527 85.9704Z" fill="#22C51D"/>
<path d="M49.6029 53.6089H45.2879C44.7157 53.6089 44.1669 53.8362 43.7623 54.2408C43.3577 54.6454 43.1304 55.1942 43.1304 55.7664C43.1304 56.3386 43.3577 56.8874 43.7623 57.292C44.1669 57.6966 44.7157 57.9239 45.2879 57.9239H49.6029C50.1751 57.9239 50.7239 57.6966 51.1285 57.292C51.5331 56.8874 51.7604 56.3386 51.7604 55.7664C51.7604 55.1942 51.5331 54.6454 51.1285 54.2408C50.7239 53.8362 50.1751 53.6089 49.6029 53.6089Z" fill="#22C51D"/>
<path d="M60.3902 53.6089H56.0752C55.503 53.6089 54.9543 53.8362 54.5496 54.2408C54.145 54.6454 53.9177 55.1942 53.9177 55.7664C53.9177 56.3386 54.145 56.8874 54.5496 57.292C54.9543 57.6966 55.503 57.9239 56.0752 57.9239H60.3902C60.9625 57.9239 61.5112 57.6966 61.9158 57.292C62.3204 56.8874 62.5478 56.3386 62.5478 55.7664C62.5478 55.1942 62.3204 54.6454 61.9158 54.2408C61.5112 53.8362 60.9625 53.6089 60.3902 53.6089Z" fill="#22C51D"/>
<path d="M73.3356 53.6089H69.0205C68.4483 53.6089 67.8996 53.8362 67.495 54.2408C67.0903 54.6454 66.863 55.1942 66.863 55.7664C66.863 56.3386 67.0903 56.8874 67.495 57.292C67.8996 57.6966 68.4483 57.9239 69.0205 57.9239H73.3356C73.9078 57.9239 74.4565 57.6966 74.8611 57.292C75.2658 56.8874 75.4931 56.3386 75.4931 55.7664C75.4931 55.1942 75.2658 54.6454 74.8611 54.2408C74.4565 53.8362 73.9078 53.6089 73.3356 53.6089Z" fill="#22C51D"/>
<path d="M84.1232 53.6089H79.8081C79.2359 53.6089 78.6872 53.8362 78.2826 54.2408C77.8779 54.6454 77.6506 55.1942 77.6506 55.7664C77.6506 56.3386 77.8779 56.8874 78.2826 57.292C78.6872 57.6966 79.2359 57.9239 79.8081 57.9239H84.1232C84.6954 57.9239 85.2441 57.6966 85.6487 57.292C86.0534 56.8874 86.2807 56.3386 86.2807 55.7664C86.2807 55.1942 86.0534 54.6454 85.6487 54.2408C85.2441 53.8362 84.6954 53.6089 84.1232 53.6089Z" fill="#22C51D"/>
<path d="M49.6029 62.2388H45.2879C44.7157 62.2388 44.1669 62.4661 43.7623 62.8707C43.3577 63.2753 43.1304 63.8241 43.1304 64.3963C43.1304 64.9685 43.3577 65.5173 43.7623 65.9219C44.1669 66.3265 44.7157 66.5538 45.2879 66.5538H49.6029C50.1751 66.5538 50.7239 66.3265 51.1285 65.9219C51.5331 65.5173 51.7604 64.9685 51.7604 64.3963C51.7604 63.8241 51.5331 63.2753 51.1285 62.8707C50.7239 62.4661 50.1751 62.2388 49.6029 62.2388Z" fill="#22C51D"/>
<path d="M60.3902 62.2388H56.0752C55.503 62.2388 54.9543 62.4661 54.5496 62.8707C54.145 63.2753 53.9177 63.8241 53.9177 64.3963C53.9177 64.9685 54.145 65.5173 54.5496 65.9219C54.9543 66.3265 55.503 66.5538 56.0752 66.5538H60.3902C60.9625 66.5538 61.5112 66.3265 61.9158 65.9219C62.3204 65.5173 62.5478 64.9685 62.5478 64.3963C62.5478 63.8241 62.3204 63.2753 61.9158 62.8707C61.5112 62.4661 60.9625 62.2388 60.3902 62.2388Z" fill="#22C51D"/>
<path d="M73.3356 62.2388H69.0205C68.4483 62.2388 67.8996 62.4661 67.495 62.8707C67.0903 63.2753 66.863 63.8241 66.863 64.3963C66.863 64.9685 67.0903 65.5173 67.495 65.9219C67.8996 66.3265 68.4483 66.5538 69.0205 66.5538H73.3356C73.9078 66.5538 74.4565 66.3265 74.8611 65.9219C75.2658 65.5173 75.4931 64.9685 75.4931 64.3963C75.4931 63.8241 75.2658 63.2753 74.8611 62.8707C74.4565 62.4661 73.9078 62.2388 73.3356 62.2388Z" fill="#22C51D"/>
<path d="M84.1232 62.2388H79.8081C79.2359 62.2388 78.6872 62.4661 78.2826 62.8707C77.8779 63.2753 77.6506 63.8241 77.6506 64.3963C77.6506 64.9685 77.8779 65.5173 78.2826 65.9219C78.6872 66.3265 79.2359 66.5538 79.8081 66.5538H84.1232C84.6954 66.5538 85.2441 66.3265 85.6487 65.9219C86.0534 65.5173 86.2807 64.9685 86.2807 64.3963C86.2807 63.8241 86.0534 63.2753 85.6487 62.8707C85.2441 62.4661 84.6954 62.2388 84.1232 62.2388Z" fill="#22C51D"/>
<path d="M49.6029 70.8691H45.2879C44.7157 70.8691 44.1669 71.0964 43.7623 71.5011C43.3577 71.9057 43.1304 72.4544 43.1304 73.0266C43.1304 73.5989 43.3577 74.1476 43.7623 74.5522C44.1669 74.9568 44.7157 75.1842 45.2879 75.1842H49.6029C50.1751 75.1842 50.7239 74.9568 51.1285 74.5522C51.5331 74.1476 51.7604 73.5989 51.7604 73.0266C51.7604 72.4544 51.5331 71.9057 51.1285 71.5011C50.7239 71.0964 50.1751 70.8691 49.6029 70.8691Z" fill="#22C51D"/>
<path d="M60.3902 70.8691H56.0752C55.503 70.8691 54.9543 71.0964 54.5496 71.5011C54.145 71.9057 53.9177 72.4544 53.9177 73.0266C53.9177 73.5989 54.145 74.1476 54.5496 74.5522C54.9543 74.9568 55.503 75.1842 56.0752 75.1842H60.3902C60.9625 75.1842 61.5112 74.9568 61.9158 74.5522C62.3204 74.1476 62.5478 73.5989 62.5478 73.0266C62.5478 72.4544 62.3204 71.9057 61.9158 71.5011C61.5112 71.0964 60.9625 70.8691 60.3902 70.8691Z" fill="#22C51D"/>
<path d="M73.3356 70.8691H69.0205C68.4483 70.8691 67.8996 71.0964 67.495 71.5011C67.0903 71.9057 66.863 72.4544 66.863 73.0266C66.863 73.5989 67.0903 74.1476 67.495 74.5522C67.8996 74.9568 68.4483 75.1842 69.0205 75.1842H73.3356C73.9078 75.1842 74.4565 74.9568 74.8611 74.5522C75.2658 74.1476 75.4931 73.5989 75.4931 73.0266C75.4931 72.4544 75.2658 71.9057 74.8611 71.5011C74.4565 71.0964 73.9078 70.8691 73.3356 70.8691Z" fill="#22C51D"/>
<path d="M84.1232 70.8691H79.8081C79.2359 70.8691 78.6872 71.0964 78.2826 71.5011C77.8779 71.9057 77.6506 72.4544 77.6506 73.0266C77.6506 73.5989 77.8779 74.1476 78.2826 74.5522C78.6872 74.9568 79.2359 75.1842 79.8081 75.1842H84.1232C84.6954 75.1842 85.2441 74.9568 85.6487 74.5522C86.0534 74.1476 86.2807 73.5989 86.2807 73.0266C86.2807 72.4544 86.0534 71.9057 85.6487 71.5011C85.2441 71.0964 84.6954 70.8691 84.1232 70.8691Z" fill="#22C51D"/>
<path d="M49.6029 79.499H45.2879C44.7157 79.499 44.1669 79.7263 43.7623 80.1309C43.3577 80.5356 43.1304 81.0843 43.1304 81.6565C43.1304 82.2287 43.3577 82.7775 43.7623 83.1821C44.1669 83.5867 44.7157 83.814 45.2879 83.814H49.6029C50.1751 83.814 50.7239 83.5867 51.1285 83.1821C51.5331 82.7775 51.7604 82.2287 51.7604 81.6565C51.7604 81.0843 51.5331 80.5356 51.1285 80.1309C50.7239 79.7263 50.1751 79.499 49.6029 79.499Z" fill="#22C51D"/>
<path d="M60.3902 79.499H56.0752C55.503 79.499 54.9543 79.7263 54.5496 80.1309C54.145 80.5356 53.9177 81.0843 53.9177 81.6565C53.9177 82.2287 54.145 82.7775 54.5496 83.1821C54.9543 83.5867 55.503 83.814 56.0752 83.814H60.3902C60.9625 83.814 61.5112 83.5867 61.9158 83.1821C62.3204 82.7775 62.5478 82.2287 62.5478 81.6565C62.5478 81.0843 62.3204 80.5356 61.9158 80.1309C61.5112 79.7263 60.9625 79.499 60.3902 79.499Z" fill="#22C51D"/>
<path d="M73.3356 79.499H69.0205C68.4483 79.499 67.8996 79.7263 67.495 80.1309C67.0903 80.5356 66.863 81.0843 66.863 81.6565C66.863 82.2287 67.0903 82.7775 67.495 83.1821C67.8996 83.5867 68.4483 83.814 69.0205 83.814H73.3356C73.9078 83.814 74.4565 83.5867 74.8611 83.1821C75.2658 82.7775 75.4931 82.2287 75.4931 81.6565C75.4931 81.0843 75.2658 80.5356 74.8611 80.1309C74.4565 79.7263 73.9078 79.499 73.3356 79.499Z" fill="#22C51D"/>
<path d="M84.1232 79.499H79.8081C79.2359 79.499 78.6872 79.7263 78.2826 80.1309C77.8779 80.5356 77.6506 81.0843 77.6506 81.6565C77.6506 82.2287 77.8779 82.7775 78.2826 83.1821C78.6872 83.5867 79.2359 83.814 79.8081 83.814H84.1232C84.6954 83.814 85.2441 83.5867 85.6487 83.1821C86.0534 82.7775 86.2807 82.2287 86.2807 81.6565C86.2807 81.0843 86.0534 80.5356 85.6487 80.1309C85.2441 79.7263 84.6954 79.499 84.1232 79.499Z" fill="#22C51D"/>
</svg>
