<svg width="130" height="129" viewBox="0 0 130 129" fill="none" xmlns="http://www.w3.org/2000/svg">
<rect opacity="0.1" x="0.942627" width="128.356" height="128.356" rx="29.1719" fill="#22C51D"/>
<path d="M96.5335 53.6782L66.9058 33.1667C66.5243 32.9021 66.0711 32.7603 65.6067 32.7603C65.1424 32.7603 64.6892 32.9021 64.3077 33.1667L43.7962 47.3653C43.5334 47.5283 43.3066 47.7432 43.1295 47.9968C42.9524 48.2503 42.8288 48.5372 42.7662 48.8401C42.7035 49.1429 42.7032 49.4554 42.7652 49.7584C42.8271 50.0614 42.9501 50.3486 43.1266 50.6025C43.3032 50.8564 43.5295 51.0718 43.7919 51.2355C44.0543 51.3991 44.3473 51.5077 44.653 51.5545C44.9587 51.6013 45.2707 51.5854 45.5701 51.5078C45.8695 51.4301 46.1499 51.2924 46.3943 51.1029L65.6067 37.816L92.9554 56.7322V60.3103L66.9058 42.283C66.5243 42.0183 66.0711 41.8765 65.6067 41.8765C65.1424 41.8765 64.6892 42.0183 64.3077 42.283L38.2581 60.3103V55.5471C38.2581 54.9426 38.018 54.3629 37.5905 53.9355C37.1631 53.5081 36.5835 53.268 35.979 53.268C35.3746 53.268 34.7949 53.5081 34.3675 53.9355C33.9401 54.3629 33.7 54.9426 33.7 55.5471V64.6633C33.6991 65.0818 33.8135 65.4925 34.0306 65.8503C34.2476 66.208 34.5591 66.4992 34.9306 66.6917C35.291 66.868 35.6914 66.9461 36.0916 66.9181C36.4918 66.8901 36.8775 66.7569 37.2097 66.5321L38.1897 65.8484V92.012C37.5853 92.012 37.0056 92.2521 36.5782 92.6795C36.1508 93.1069 35.9106 93.6866 35.9106 94.291C35.9106 94.8955 36.1508 95.4752 36.5782 95.9026C37.0056 96.33 37.5853 96.5701 38.1897 96.5701H92.9554C93.5599 96.5701 94.1396 96.33 94.567 95.9026C94.9944 95.4752 95.2345 94.8955 95.2345 94.291C95.2345 93.6866 94.9944 93.1069 94.567 92.6795C94.1396 92.2521 93.5599 92.012 92.9554 92.012V65.8484L93.9354 66.5321C94.3165 66.7981 94.7698 66.9413 95.2345 66.9424C95.599 66.9438 95.9585 66.8579 96.2828 66.6917C96.6544 66.4992 96.9659 66.208 97.1829 65.8503C97.4 65.4925 97.5144 65.0818 97.5135 64.6633V55.5471C97.5129 55.1796 97.4235 54.8178 97.2529 54.4924C97.0822 54.167 96.8354 53.8877 96.5335 53.6782ZM88.3973 92.012H77.002V73.7795C77.002 73.1751 76.7619 72.5954 76.3345 72.168C75.9071 71.7406 75.3274 71.5005 74.723 71.5005H56.4905C55.8861 71.5005 55.3064 71.7406 54.879 72.168C54.4516 72.5954 54.2115 73.1751 54.2115 73.7795V87.4539C54.2115 88.0583 54.4516 88.638 54.879 89.0654C55.3064 89.4928 55.8861 89.7329 56.4905 89.7329C57.095 89.7329 57.6747 89.4928 58.1021 89.0654C58.5295 88.638 58.7696 88.0583 58.7696 87.4539V76.0586H72.4439V92.012H42.8162V62.7033L65.6067 46.9322L88.3973 62.7033V92.012Z" fill="#22C51D"/>
<path d="M58.7698 60.1062C58.7698 61.9195 59.4901 63.6586 60.7723 64.9408C62.0546 66.223 63.7936 66.9434 65.6069 66.9434C67.4203 66.9434 69.1593 66.223 70.4416 64.9408C71.7238 63.6586 72.4441 61.9195 72.4441 60.1062C72.4441 59.5018 72.204 58.9221 71.7766 58.4947C71.3492 58.0673 70.7695 57.8272 70.1651 57.8272C69.5606 57.8272 68.9809 58.0673 68.5535 58.4947C68.1261 58.9221 67.886 59.5018 67.886 60.1062C67.886 60.557 67.7523 60.9976 67.5019 61.3724C67.2515 61.7472 66.8955 62.0393 66.4791 62.2118C66.0627 62.3843 65.6044 62.4294 65.1623 62.3415C64.7202 62.2535 64.3141 62.0365 63.9954 61.7177C63.6767 61.399 63.4596 60.9929 63.3717 60.5508C63.2837 60.1087 63.3289 59.6505 63.5014 59.2341C63.6739 58.8176 63.966 58.4617 64.3408 58.2112C64.7156 57.9608 65.1562 57.8272 65.6069 57.8272C66.2114 57.8272 66.7911 57.587 67.2185 57.1596C67.6459 56.7322 67.886 56.1525 67.886 55.5481C67.886 54.9437 67.6459 54.364 67.2185 53.9366C66.7911 53.5092 66.2114 53.269 65.6069 53.269C63.7936 53.269 62.0546 53.9894 60.7723 55.2716C59.4901 56.5538 58.7698 58.2929 58.7698 60.1062Z" fill="#22C51D"/>
</svg>
