<svg width="129" height="129" viewBox="0 0 129 129" fill="none" xmlns="http://www.w3.org/2000/svg">
<rect opacity="0.1" x="0.321777" y="0.13916" width="128.356" height="128.356" rx="29.1719" fill="#22C51D"/>
<path d="M72.7354 68.9971H67.5695C66.8845 68.9971 66.2275 69.2692 65.7431 69.7536C65.2587 70.238 64.9866 70.895 64.9866 71.58C64.9866 72.265 65.2587 72.922 65.7431 73.4064C66.2275 73.8908 66.8845 74.1629 67.5695 74.1629H72.7354C73.4204 74.1629 74.0774 73.8908 74.5618 73.4064C75.0462 72.922 75.3183 72.265 75.3183 71.58C75.3183 70.895 75.0462 70.238 74.5618 69.7536C74.0774 69.2692 73.4204 68.9971 72.7354 68.9971Z" fill="#22C51D"/>
<path d="M80.4838 74.1629H88.2326C88.9176 74.1629 89.5746 73.8908 90.059 73.4064C90.5434 72.922 90.8155 72.265 90.8155 71.58C90.8155 70.895 90.5434 70.238 90.059 69.7536C89.5746 69.2692 88.9176 68.9971 88.2326 68.9971H80.4838C79.7988 68.9971 79.1418 69.2692 78.6574 69.7536C78.173 70.238 77.9009 70.895 77.9009 71.58C77.9009 72.265 78.173 72.922 78.6574 73.4064C79.1418 73.8908 79.7988 74.1629 80.4838 74.1629Z" fill="#22C51D"/>
<path d="M72.7354 76.7466H67.5695C66.8845 76.7466 66.2275 77.0187 65.7431 77.5031C65.2587 77.9875 64.9866 78.6445 64.9866 79.3295C64.9866 80.0145 65.2587 80.6715 65.7431 81.1559C66.2275 81.6403 66.8845 81.9124 67.5695 81.9124H72.7354C73.4204 81.9124 74.0774 81.6403 74.5618 81.1559C75.0462 80.6715 75.3183 80.0145 75.3183 79.3295C75.3183 78.6445 75.0462 77.9875 74.5618 77.5031C74.0774 77.0187 73.4204 76.7466 72.7354 76.7466Z" fill="#22C51D"/>
<path d="M80.4838 81.9124H88.2326C88.9176 81.9124 89.5746 81.6403 90.059 81.1559C90.5434 80.6715 90.8155 80.0145 90.8155 79.3295C90.8155 78.6445 90.5434 77.9875 90.059 77.5031C89.5746 77.0187 88.9176 76.7466 88.2326 76.7466H80.4838C79.7988 76.7466 79.1418 77.0187 78.6574 77.5031C78.173 77.9875 77.9009 78.6445 77.9009 79.3295C77.9009 80.0145 78.173 80.6715 78.6574 81.1559C79.1418 81.6403 79.7988 81.9124 80.4838 81.9124Z" fill="#22C51D"/>
<path d="M98.5643 87.0781V61.2488C98.5643 60.5638 98.2922 59.9068 97.8078 59.4224C97.3234 58.938 96.6664 58.6659 95.9814 58.6659H59.8204C59.1353 58.6659 58.4784 58.938 57.994 59.4224C57.5096 59.9068 57.2374 60.5638 57.2374 61.2488V87.0781H36.574V84.4952H49.4886C50.1737 84.4952 50.8307 84.2231 51.3151 83.7387C51.7994 83.2543 52.0716 82.5973 52.0716 81.9123C52.0716 81.2272 51.7994 80.5702 51.3151 80.0859C50.8307 79.6015 50.1737 79.3293 49.4886 79.3293H36.574V74.1635H49.4886C50.1737 74.1635 50.8307 73.8913 51.3151 73.407C51.7994 72.9226 52.0716 72.2656 52.0716 71.5805C52.0716 70.8955 51.7994 70.2385 51.3151 69.7541C50.8307 69.2697 50.1737 68.9976 49.4886 68.9976H36.574V63.8317H49.4886C50.1737 63.8317 50.8307 63.5596 51.3151 63.0752C51.7994 62.5908 52.0716 61.9339 52.0716 61.2488C52.0716 60.5638 51.7994 59.9068 51.3151 59.4224C50.8307 58.938 50.1737 58.6659 49.4886 58.6659H36.574V53.5H49.4886C50.1737 53.5 50.8307 53.2279 51.3151 52.7435C51.7994 52.2591 52.0716 51.6021 52.0716 50.9171C52.0716 50.2321 51.7994 49.5751 51.3151 49.0907C50.8307 48.6063 50.1737 48.3342 49.4886 48.3342H36.574V43.1683H57.2374V50.9171C57.2374 51.6021 57.5096 52.2591 57.994 52.7435C58.4784 53.2279 59.1353 53.5 59.8204 53.5C60.5054 53.5 61.1624 53.2279 61.6468 52.7435C62.1312 52.2591 62.4033 51.6021 62.4033 50.9171V40.5854C62.4033 39.9003 62.1312 39.2434 61.6468 38.759C61.1624 38.2746 60.5054 38.0024 59.8204 38.0024H33.9911C33.306 38.0024 32.649 38.2746 32.1646 38.759C31.6803 39.2434 31.4081 39.9003 31.4081 40.5854V87.0781C30.7231 87.0781 30.0661 87.3503 29.5817 87.8346C29.0973 88.319 28.8252 88.976 28.8252 89.6611C28.8252 90.3461 29.0973 91.0031 29.5817 91.4875C30.0661 91.9719 30.7231 92.244 31.4081 92.244H77.9009C78.5859 92.244 79.2429 91.9719 79.7273 91.4875C80.2117 91.0031 80.4838 90.3461 80.4838 89.6611C80.4838 88.976 80.2117 88.319 79.7273 87.8346C79.2429 87.3503 78.5859 87.0781 77.9009 87.0781H62.4033V63.8317H93.3985V87.0781H88.2326C87.5476 87.0781 86.8906 87.3503 86.4062 87.8346C85.9218 88.319 85.6497 88.976 85.6497 89.6611C85.6497 90.3461 85.9218 91.0031 86.4062 91.4875C86.8906 91.9719 87.5476 92.244 88.2326 92.244H98.5643C99.2494 92.244 99.9063 91.9719 100.391 91.4875C100.875 91.0031 101.147 90.3461 101.147 89.6611C101.147 88.976 100.875 88.319 100.391 87.8346C99.9063 87.3503 99.2494 87.0781 98.5643 87.0781Z" fill="#22C51D"/>
</svg>
